M48
METRIC,TZ
T1C1.000
%
G90
G05
T1
X81280Y-81280
X81280Y-85930
X81280Y-90580
X81280Y-95230
X81280Y-99880
X83820Y-81280
X83820Y-85930
X83820Y-90580
X83820Y-95230
X83820Y-99880
X86360Y-81280
X86360Y-85930
X86360Y-90580
X86360Y-95230
X86360Y-99880
X104140Y-45720
X104140Y-48260
X104140Y-50800
X104140Y-53340
X104140Y-55880
X104140Y-58420
X104150Y-72390
X104150Y-74930
X104150Y-77470
X104150Y-80010
X104150Y-82550
X104150Y-85090
X104150Y-87630
X104150Y-90170
X104150Y-92710
X104150Y-95250
X104150Y-97790
X104150Y-100330
X104150Y-102870
X104150Y-105410
X104150Y-107950
X111760Y-33020
X114300Y-33020
X119390Y-72390
X119390Y-74930
X119390Y-77470
X119390Y-80010
X119390Y-82550
X119390Y-85090
X119390Y-87630
X119390Y-90170
X119390Y-92710
X119390Y-95250
X119390Y-97790
X119390Y-100330
X119390Y-102870
X119390Y-105410
X119390Y-107950
X121920Y-48260
X121920Y-50800
X121920Y-53340
X121920Y-55880
M30
