%TF.GenerationSoftware,KiCad,Pcbnew,8.0.5-1.fc40*%
%TF.CreationDate,2024-11-02T20:46:04+01:00*%
%TF.ProjectId,PlaneController,506c616e-6543-46f6-9e74-726f6c6c6572,rev?*%
%TF.SameCoordinates,Original*%
%TF.FileFunction,Legend,Top*%
%TF.FilePolarity,Positive*%
%FSLAX46Y46*%
G04 Gerber Fmt 4.6, Leading zero omitted, Abs format (unit mm)*
G04 Created by KiCad (PCBNEW 8.0.5-1.fc40) date 2024-11-02 20:46:04*
%MOMM*%
%LPD*%
G01*
G04 APERTURE LIST*
%ADD10C,0.100000*%
%ADD11C,0.150000*%
%ADD12C,0.120000*%
%ADD13C,0.350000*%
G04 APERTURE END LIST*
D10*
X89662000Y-61722000D02*
X100584000Y-61722000D01*
X100584000Y-83058000D01*
X89662000Y-83058000D01*
X89662000Y-61722000D01*
X89662000Y-85598000D02*
X100584000Y-85598000D01*
X100584000Y-99568000D01*
X89662000Y-99568000D01*
X89662000Y-85598000D01*
X101600000Y-43180000D02*
X124460000Y-43180000D01*
X124460000Y-60960000D01*
X101600000Y-60960000D01*
X101600000Y-43180000D01*
X94996000Y-27940000D02*
X106172000Y-27940000D01*
X106172000Y-38100000D01*
X94996000Y-38100000D01*
X94996000Y-27940000D01*
X102078455Y-28336419D02*
X101887979Y-28336419D01*
X101887979Y-28336419D02*
X101792741Y-28384038D01*
X101792741Y-28384038D02*
X101745122Y-28431657D01*
X101745122Y-28431657D02*
X101649884Y-28574514D01*
X101649884Y-28574514D02*
X101602265Y-28764990D01*
X101602265Y-28764990D02*
X101602265Y-29145942D01*
X101602265Y-29145942D02*
X101649884Y-29241180D01*
X101649884Y-29241180D02*
X101697503Y-29288800D01*
X101697503Y-29288800D02*
X101792741Y-29336419D01*
X101792741Y-29336419D02*
X101983217Y-29336419D01*
X101983217Y-29336419D02*
X102078455Y-29288800D01*
X102078455Y-29288800D02*
X102126074Y-29241180D01*
X102126074Y-29241180D02*
X102173693Y-29145942D01*
X102173693Y-29145942D02*
X102173693Y-28907847D01*
X102173693Y-28907847D02*
X102126074Y-28812609D01*
X102126074Y-28812609D02*
X102078455Y-28764990D01*
X102078455Y-28764990D02*
X101983217Y-28717371D01*
X101983217Y-28717371D02*
X101792741Y-28717371D01*
X101792741Y-28717371D02*
X101697503Y-28764990D01*
X101697503Y-28764990D02*
X101649884Y-28812609D01*
X101649884Y-28812609D02*
X101602265Y-28907847D01*
X98601884Y-70484419D02*
X98601884Y-69484419D01*
X98601884Y-69484419D02*
X98839979Y-69484419D01*
X98839979Y-69484419D02*
X98982836Y-69532038D01*
X98982836Y-69532038D02*
X99078074Y-69627276D01*
X99078074Y-69627276D02*
X99125693Y-69722514D01*
X99125693Y-69722514D02*
X99173312Y-69912990D01*
X99173312Y-69912990D02*
X99173312Y-70055847D01*
X99173312Y-70055847D02*
X99125693Y-70246323D01*
X99125693Y-70246323D02*
X99078074Y-70341561D01*
X99078074Y-70341561D02*
X98982836Y-70436800D01*
X98982836Y-70436800D02*
X98839979Y-70484419D01*
X98839979Y-70484419D02*
X98601884Y-70484419D01*
X99506646Y-69484419D02*
X100125693Y-69484419D01*
X100125693Y-69484419D02*
X99792360Y-69865371D01*
X99792360Y-69865371D02*
X99935217Y-69865371D01*
X99935217Y-69865371D02*
X100030455Y-69912990D01*
X100030455Y-69912990D02*
X100078074Y-69960609D01*
X100078074Y-69960609D02*
X100125693Y-70055847D01*
X100125693Y-70055847D02*
X100125693Y-70293942D01*
X100125693Y-70293942D02*
X100078074Y-70389180D01*
X100078074Y-70389180D02*
X100030455Y-70436800D01*
X100030455Y-70436800D02*
X99935217Y-70484419D01*
X99935217Y-70484419D02*
X99649503Y-70484419D01*
X99649503Y-70484419D02*
X99554265Y-70436800D01*
X99554265Y-70436800D02*
X99506646Y-70389180D01*
X106428265Y-88232704D02*
X106904455Y-88232704D01*
X106333027Y-88518419D02*
X106666360Y-87518419D01*
X106666360Y-87518419D02*
X106999693Y-88518419D01*
X107333027Y-88518419D02*
X107333027Y-87851752D01*
X107333027Y-88042228D02*
X107380646Y-87946990D01*
X107380646Y-87946990D02*
X107428265Y-87899371D01*
X107428265Y-87899371D02*
X107523503Y-87851752D01*
X107523503Y-87851752D02*
X107618741Y-87851752D01*
X108380646Y-88518419D02*
X108380646Y-87518419D01*
X108380646Y-88470800D02*
X108285408Y-88518419D01*
X108285408Y-88518419D02*
X108094932Y-88518419D01*
X108094932Y-88518419D02*
X107999694Y-88470800D01*
X107999694Y-88470800D02*
X107952075Y-88423180D01*
X107952075Y-88423180D02*
X107904456Y-88327942D01*
X107904456Y-88327942D02*
X107904456Y-88042228D01*
X107904456Y-88042228D02*
X107952075Y-87946990D01*
X107952075Y-87946990D02*
X107999694Y-87899371D01*
X107999694Y-87899371D02*
X108094932Y-87851752D01*
X108094932Y-87851752D02*
X108285408Y-87851752D01*
X108285408Y-87851752D02*
X108380646Y-87899371D01*
X109285408Y-87851752D02*
X109285408Y-88518419D01*
X108856837Y-87851752D02*
X108856837Y-88375561D01*
X108856837Y-88375561D02*
X108904456Y-88470800D01*
X108904456Y-88470800D02*
X108999694Y-88518419D01*
X108999694Y-88518419D02*
X109142551Y-88518419D01*
X109142551Y-88518419D02*
X109237789Y-88470800D01*
X109237789Y-88470800D02*
X109285408Y-88423180D01*
X109761599Y-88518419D02*
X109761599Y-87851752D01*
X109761599Y-87518419D02*
X109713980Y-87566038D01*
X109713980Y-87566038D02*
X109761599Y-87613657D01*
X109761599Y-87613657D02*
X109809218Y-87566038D01*
X109809218Y-87566038D02*
X109761599Y-87518419D01*
X109761599Y-87518419D02*
X109761599Y-87613657D01*
X110237789Y-87851752D02*
X110237789Y-88518419D01*
X110237789Y-87946990D02*
X110285408Y-87899371D01*
X110285408Y-87899371D02*
X110380646Y-87851752D01*
X110380646Y-87851752D02*
X110523503Y-87851752D01*
X110523503Y-87851752D02*
X110618741Y-87899371D01*
X110618741Y-87899371D02*
X110666360Y-87994609D01*
X110666360Y-87994609D02*
X110666360Y-88518419D01*
X111285408Y-88518419D02*
X111190170Y-88470800D01*
X111190170Y-88470800D02*
X111142551Y-88423180D01*
X111142551Y-88423180D02*
X111094932Y-88327942D01*
X111094932Y-88327942D02*
X111094932Y-88042228D01*
X111094932Y-88042228D02*
X111142551Y-87946990D01*
X111142551Y-87946990D02*
X111190170Y-87899371D01*
X111190170Y-87899371D02*
X111285408Y-87851752D01*
X111285408Y-87851752D02*
X111428265Y-87851752D01*
X111428265Y-87851752D02*
X111523503Y-87899371D01*
X111523503Y-87899371D02*
X111571122Y-87946990D01*
X111571122Y-87946990D02*
X111618741Y-88042228D01*
X111618741Y-88042228D02*
X111618741Y-88327942D01*
X111618741Y-88327942D02*
X111571122Y-88423180D01*
X111571122Y-88423180D02*
X111523503Y-88470800D01*
X111523503Y-88470800D02*
X111428265Y-88518419D01*
X111428265Y-88518419D02*
X111285408Y-88518419D01*
X112809218Y-88518419D02*
X112809218Y-87518419D01*
X112809218Y-87518419D02*
X113380646Y-88518419D01*
X113380646Y-88518419D02*
X113380646Y-87518419D01*
X113809218Y-88232704D02*
X114285408Y-88232704D01*
X113713980Y-88518419D02*
X114047313Y-87518419D01*
X114047313Y-87518419D02*
X114380646Y-88518419D01*
X114713980Y-88518419D02*
X114713980Y-87518419D01*
X114713980Y-87518419D02*
X115285408Y-88518419D01*
X115285408Y-88518419D02*
X115285408Y-87518419D01*
X115952075Y-87518419D02*
X116142551Y-87518419D01*
X116142551Y-87518419D02*
X116237789Y-87566038D01*
X116237789Y-87566038D02*
X116333027Y-87661276D01*
X116333027Y-87661276D02*
X116380646Y-87851752D01*
X116380646Y-87851752D02*
X116380646Y-88185085D01*
X116380646Y-88185085D02*
X116333027Y-88375561D01*
X116333027Y-88375561D02*
X116237789Y-88470800D01*
X116237789Y-88470800D02*
X116142551Y-88518419D01*
X116142551Y-88518419D02*
X115952075Y-88518419D01*
X115952075Y-88518419D02*
X115856837Y-88470800D01*
X115856837Y-88470800D02*
X115761599Y-88375561D01*
X115761599Y-88375561D02*
X115713980Y-88185085D01*
X115713980Y-88185085D02*
X115713980Y-87851752D01*
X115713980Y-87851752D02*
X115761599Y-87661276D01*
X115761599Y-87661276D02*
X115856837Y-87566038D01*
X115856837Y-87566038D02*
X115952075Y-87518419D01*
X99538455Y-28669752D02*
X99538455Y-29336419D01*
X99300360Y-28288800D02*
X99062265Y-29003085D01*
X99062265Y-29003085D02*
X99681312Y-29003085D01*
X96522265Y-28431657D02*
X96569884Y-28384038D01*
X96569884Y-28384038D02*
X96665122Y-28336419D01*
X96665122Y-28336419D02*
X96903217Y-28336419D01*
X96903217Y-28336419D02*
X96998455Y-28384038D01*
X96998455Y-28384038D02*
X97046074Y-28431657D01*
X97046074Y-28431657D02*
X97093693Y-28526895D01*
X97093693Y-28526895D02*
X97093693Y-28622133D01*
X97093693Y-28622133D02*
X97046074Y-28764990D01*
X97046074Y-28764990D02*
X96474646Y-29336419D01*
X96474646Y-29336419D02*
X97093693Y-29336419D01*
X104094646Y-34686419D02*
X104761312Y-34686419D01*
X104761312Y-34686419D02*
X104332741Y-35686419D01*
X98601884Y-95630419D02*
X98601884Y-94630419D01*
X98601884Y-94630419D02*
X98839979Y-94630419D01*
X98839979Y-94630419D02*
X98982836Y-94678038D01*
X98982836Y-94678038D02*
X99078074Y-94773276D01*
X99078074Y-94773276D02*
X99125693Y-94868514D01*
X99125693Y-94868514D02*
X99173312Y-95058990D01*
X99173312Y-95058990D02*
X99173312Y-95201847D01*
X99173312Y-95201847D02*
X99125693Y-95392323D01*
X99125693Y-95392323D02*
X99078074Y-95487561D01*
X99078074Y-95487561D02*
X98982836Y-95582800D01*
X98982836Y-95582800D02*
X98839979Y-95630419D01*
X98839979Y-95630419D02*
X98601884Y-95630419D01*
X99649503Y-95630419D02*
X99839979Y-95630419D01*
X99839979Y-95630419D02*
X99935217Y-95582800D01*
X99935217Y-95582800D02*
X99982836Y-95535180D01*
X99982836Y-95535180D02*
X100078074Y-95392323D01*
X100078074Y-95392323D02*
X100125693Y-95201847D01*
X100125693Y-95201847D02*
X100125693Y-94820895D01*
X100125693Y-94820895D02*
X100078074Y-94725657D01*
X100078074Y-94725657D02*
X100030455Y-94678038D01*
X100030455Y-94678038D02*
X99935217Y-94630419D01*
X99935217Y-94630419D02*
X99744741Y-94630419D01*
X99744741Y-94630419D02*
X99649503Y-94678038D01*
X99649503Y-94678038D02*
X99601884Y-94725657D01*
X99601884Y-94725657D02*
X99554265Y-94820895D01*
X99554265Y-94820895D02*
X99554265Y-95058990D01*
X99554265Y-95058990D02*
X99601884Y-95154228D01*
X99601884Y-95154228D02*
X99649503Y-95201847D01*
X99649503Y-95201847D02*
X99744741Y-95249466D01*
X99744741Y-95249466D02*
X99935217Y-95249466D01*
X99935217Y-95249466D02*
X100030455Y-95201847D01*
X100030455Y-95201847D02*
X100078074Y-95154228D01*
X100078074Y-95154228D02*
X100125693Y-95058990D01*
X90489693Y-84010038D02*
X90394455Y-83962419D01*
X90394455Y-83962419D02*
X90251598Y-83962419D01*
X90251598Y-83962419D02*
X90108741Y-84010038D01*
X90108741Y-84010038D02*
X90013503Y-84105276D01*
X90013503Y-84105276D02*
X89965884Y-84200514D01*
X89965884Y-84200514D02*
X89918265Y-84390990D01*
X89918265Y-84390990D02*
X89918265Y-84533847D01*
X89918265Y-84533847D02*
X89965884Y-84724323D01*
X89965884Y-84724323D02*
X90013503Y-84819561D01*
X90013503Y-84819561D02*
X90108741Y-84914800D01*
X90108741Y-84914800D02*
X90251598Y-84962419D01*
X90251598Y-84962419D02*
X90346836Y-84962419D01*
X90346836Y-84962419D02*
X90489693Y-84914800D01*
X90489693Y-84914800D02*
X90537312Y-84867180D01*
X90537312Y-84867180D02*
X90537312Y-84533847D01*
X90537312Y-84533847D02*
X90346836Y-84533847D01*
X90965884Y-84962419D02*
X90965884Y-83962419D01*
X90965884Y-83962419D02*
X91537312Y-84962419D01*
X91537312Y-84962419D02*
X91537312Y-83962419D01*
X92013503Y-84962419D02*
X92013503Y-83962419D01*
X92013503Y-83962419D02*
X92251598Y-83962419D01*
X92251598Y-83962419D02*
X92394455Y-84010038D01*
X92394455Y-84010038D02*
X92489693Y-84105276D01*
X92489693Y-84105276D02*
X92537312Y-84200514D01*
X92537312Y-84200514D02*
X92584931Y-84390990D01*
X92584931Y-84390990D02*
X92584931Y-84533847D01*
X92584931Y-84533847D02*
X92537312Y-84724323D01*
X92537312Y-84724323D02*
X92489693Y-84819561D01*
X92489693Y-84819561D02*
X92394455Y-84914800D01*
X92394455Y-84914800D02*
X92251598Y-84962419D01*
X92251598Y-84962419D02*
X92013503Y-84962419D01*
X126654800Y-101661258D02*
X126750038Y-101375544D01*
X126750038Y-101375544D02*
X126750038Y-100899353D01*
X126750038Y-100899353D02*
X126654800Y-100708877D01*
X126654800Y-100708877D02*
X126559561Y-100613639D01*
X126559561Y-100613639D02*
X126369085Y-100518401D01*
X126369085Y-100518401D02*
X126178609Y-100518401D01*
X126178609Y-100518401D02*
X125988133Y-100613639D01*
X125988133Y-100613639D02*
X125892895Y-100708877D01*
X125892895Y-100708877D02*
X125797657Y-100899353D01*
X125797657Y-100899353D02*
X125702419Y-101280306D01*
X125702419Y-101280306D02*
X125607180Y-101470782D01*
X125607180Y-101470782D02*
X125511942Y-101566020D01*
X125511942Y-101566020D02*
X125321466Y-101661258D01*
X125321466Y-101661258D02*
X125130990Y-101661258D01*
X125130990Y-101661258D02*
X124940514Y-101566020D01*
X124940514Y-101566020D02*
X124845276Y-101470782D01*
X124845276Y-101470782D02*
X124750038Y-101280306D01*
X124750038Y-101280306D02*
X124750038Y-100804115D01*
X124750038Y-100804115D02*
X124845276Y-100518401D01*
X126750038Y-98804115D02*
X125702419Y-98804115D01*
X125702419Y-98804115D02*
X125511942Y-98899353D01*
X125511942Y-98899353D02*
X125416704Y-99089829D01*
X125416704Y-99089829D02*
X125416704Y-99470782D01*
X125416704Y-99470782D02*
X125511942Y-99661258D01*
X126654800Y-98804115D02*
X126750038Y-98994591D01*
X126750038Y-98994591D02*
X126750038Y-99470782D01*
X126750038Y-99470782D02*
X126654800Y-99661258D01*
X126654800Y-99661258D02*
X126464323Y-99756496D01*
X126464323Y-99756496D02*
X126273847Y-99756496D01*
X126273847Y-99756496D02*
X126083371Y-99661258D01*
X126083371Y-99661258D02*
X125988133Y-99470782D01*
X125988133Y-99470782D02*
X125988133Y-98994591D01*
X125988133Y-98994591D02*
X125892895Y-98804115D01*
X126750038Y-97851734D02*
X125416704Y-97851734D01*
X125797657Y-97851734D02*
X125607180Y-97756496D01*
X125607180Y-97756496D02*
X125511942Y-97661258D01*
X125511942Y-97661258D02*
X125416704Y-97470782D01*
X125416704Y-97470782D02*
X125416704Y-97280305D01*
X126750038Y-95756496D02*
X125702419Y-95756496D01*
X125702419Y-95756496D02*
X125511942Y-95851734D01*
X125511942Y-95851734D02*
X125416704Y-96042210D01*
X125416704Y-96042210D02*
X125416704Y-96423163D01*
X125416704Y-96423163D02*
X125511942Y-96613639D01*
X126654800Y-95756496D02*
X126750038Y-95946972D01*
X126750038Y-95946972D02*
X126750038Y-96423163D01*
X126750038Y-96423163D02*
X126654800Y-96613639D01*
X126654800Y-96613639D02*
X126464323Y-96708877D01*
X126464323Y-96708877D02*
X126273847Y-96708877D01*
X126273847Y-96708877D02*
X126083371Y-96613639D01*
X126083371Y-96613639D02*
X125988133Y-96423163D01*
X125988133Y-96423163D02*
X125988133Y-95946972D01*
X125988133Y-95946972D02*
X125892895Y-95756496D01*
X125416704Y-93470781D02*
X126750038Y-92994591D01*
X126750038Y-92994591D02*
X125416704Y-92518400D01*
X124940514Y-91851733D02*
X124845276Y-91756495D01*
X124845276Y-91756495D02*
X124750038Y-91566019D01*
X124750038Y-91566019D02*
X124750038Y-91089828D01*
X124750038Y-91089828D02*
X124845276Y-90899352D01*
X124845276Y-90899352D02*
X124940514Y-90804114D01*
X124940514Y-90804114D02*
X125130990Y-90708876D01*
X125130990Y-90708876D02*
X125321466Y-90708876D01*
X125321466Y-90708876D02*
X125607180Y-90804114D01*
X125607180Y-90804114D02*
X126750038Y-91946971D01*
X126750038Y-91946971D02*
X126750038Y-90708876D01*
X97093693Y-35686419D02*
X96522265Y-35686419D01*
X96807979Y-35686419D02*
X96807979Y-34686419D01*
X96807979Y-34686419D02*
X96712741Y-34829276D01*
X96712741Y-34829276D02*
X96617503Y-34924514D01*
X96617503Y-34924514D02*
X96522265Y-34972133D01*
X110873217Y-52180609D02*
X111016074Y-52228228D01*
X111016074Y-52228228D02*
X111063693Y-52275847D01*
X111063693Y-52275847D02*
X111111312Y-52371085D01*
X111111312Y-52371085D02*
X111111312Y-52513942D01*
X111111312Y-52513942D02*
X111063693Y-52609180D01*
X111063693Y-52609180D02*
X111016074Y-52656800D01*
X111016074Y-52656800D02*
X110920836Y-52704419D01*
X110920836Y-52704419D02*
X110539884Y-52704419D01*
X110539884Y-52704419D02*
X110539884Y-51704419D01*
X110539884Y-51704419D02*
X110873217Y-51704419D01*
X110873217Y-51704419D02*
X110968455Y-51752038D01*
X110968455Y-51752038D02*
X111016074Y-51799657D01*
X111016074Y-51799657D02*
X111063693Y-51894895D01*
X111063693Y-51894895D02*
X111063693Y-51990133D01*
X111063693Y-51990133D02*
X111016074Y-52085371D01*
X111016074Y-52085371D02*
X110968455Y-52132990D01*
X110968455Y-52132990D02*
X110873217Y-52180609D01*
X110873217Y-52180609D02*
X110539884Y-52180609D01*
X111539884Y-52704419D02*
X111539884Y-51704419D01*
X111539884Y-51704419D02*
X112111312Y-52704419D01*
X112111312Y-52704419D02*
X112111312Y-51704419D01*
X112777979Y-51704419D02*
X112968455Y-51704419D01*
X112968455Y-51704419D02*
X113063693Y-51752038D01*
X113063693Y-51752038D02*
X113158931Y-51847276D01*
X113158931Y-51847276D02*
X113206550Y-52037752D01*
X113206550Y-52037752D02*
X113206550Y-52371085D01*
X113206550Y-52371085D02*
X113158931Y-52561561D01*
X113158931Y-52561561D02*
X113063693Y-52656800D01*
X113063693Y-52656800D02*
X112968455Y-52704419D01*
X112968455Y-52704419D02*
X112777979Y-52704419D01*
X112777979Y-52704419D02*
X112682741Y-52656800D01*
X112682741Y-52656800D02*
X112587503Y-52561561D01*
X112587503Y-52561561D02*
X112539884Y-52371085D01*
X112539884Y-52371085D02*
X112539884Y-52037752D01*
X112539884Y-52037752D02*
X112587503Y-51847276D01*
X112587503Y-51847276D02*
X112682741Y-51752038D01*
X112682741Y-51752038D02*
X112777979Y-51704419D01*
X113825598Y-51704419D02*
X113920836Y-51704419D01*
X113920836Y-51704419D02*
X114016074Y-51752038D01*
X114016074Y-51752038D02*
X114063693Y-51799657D01*
X114063693Y-51799657D02*
X114111312Y-51894895D01*
X114111312Y-51894895D02*
X114158931Y-52085371D01*
X114158931Y-52085371D02*
X114158931Y-52323466D01*
X114158931Y-52323466D02*
X114111312Y-52513942D01*
X114111312Y-52513942D02*
X114063693Y-52609180D01*
X114063693Y-52609180D02*
X114016074Y-52656800D01*
X114016074Y-52656800D02*
X113920836Y-52704419D01*
X113920836Y-52704419D02*
X113825598Y-52704419D01*
X113825598Y-52704419D02*
X113730360Y-52656800D01*
X113730360Y-52656800D02*
X113682741Y-52609180D01*
X113682741Y-52609180D02*
X113635122Y-52513942D01*
X113635122Y-52513942D02*
X113587503Y-52323466D01*
X113587503Y-52323466D02*
X113587503Y-52085371D01*
X113587503Y-52085371D02*
X113635122Y-51894895D01*
X113635122Y-51894895D02*
X113682741Y-51799657D01*
X113682741Y-51799657D02*
X113730360Y-51752038D01*
X113730360Y-51752038D02*
X113825598Y-51704419D01*
X115063693Y-51704419D02*
X114587503Y-51704419D01*
X114587503Y-51704419D02*
X114539884Y-52180609D01*
X114539884Y-52180609D02*
X114587503Y-52132990D01*
X114587503Y-52132990D02*
X114682741Y-52085371D01*
X114682741Y-52085371D02*
X114920836Y-52085371D01*
X114920836Y-52085371D02*
X115016074Y-52132990D01*
X115016074Y-52132990D02*
X115063693Y-52180609D01*
X115063693Y-52180609D02*
X115111312Y-52275847D01*
X115111312Y-52275847D02*
X115111312Y-52513942D01*
X115111312Y-52513942D02*
X115063693Y-52609180D01*
X115063693Y-52609180D02*
X115016074Y-52656800D01*
X115016074Y-52656800D02*
X114920836Y-52704419D01*
X114920836Y-52704419D02*
X114682741Y-52704419D01*
X114682741Y-52704419D02*
X114587503Y-52656800D01*
X114587503Y-52656800D02*
X114539884Y-52609180D01*
X116016074Y-51704419D02*
X115539884Y-51704419D01*
X115539884Y-51704419D02*
X115492265Y-52180609D01*
X115492265Y-52180609D02*
X115539884Y-52132990D01*
X115539884Y-52132990D02*
X115635122Y-52085371D01*
X115635122Y-52085371D02*
X115873217Y-52085371D01*
X115873217Y-52085371D02*
X115968455Y-52132990D01*
X115968455Y-52132990D02*
X116016074Y-52180609D01*
X116016074Y-52180609D02*
X116063693Y-52275847D01*
X116063693Y-52275847D02*
X116063693Y-52513942D01*
X116063693Y-52513942D02*
X116016074Y-52609180D01*
X116016074Y-52609180D02*
X115968455Y-52656800D01*
X115968455Y-52656800D02*
X115873217Y-52704419D01*
X115873217Y-52704419D02*
X115635122Y-52704419D01*
X115635122Y-52704419D02*
X115539884Y-52656800D01*
X115539884Y-52656800D02*
X115492265Y-52609180D01*
X102126074Y-34686419D02*
X101649884Y-34686419D01*
X101649884Y-34686419D02*
X101602265Y-35162609D01*
X101602265Y-35162609D02*
X101649884Y-35114990D01*
X101649884Y-35114990D02*
X101745122Y-35067371D01*
X101745122Y-35067371D02*
X101983217Y-35067371D01*
X101983217Y-35067371D02*
X102078455Y-35114990D01*
X102078455Y-35114990D02*
X102126074Y-35162609D01*
X102126074Y-35162609D02*
X102173693Y-35257847D01*
X102173693Y-35257847D02*
X102173693Y-35495942D01*
X102173693Y-35495942D02*
X102126074Y-35591180D01*
X102126074Y-35591180D02*
X102078455Y-35638800D01*
X102078455Y-35638800D02*
X101983217Y-35686419D01*
X101983217Y-35686419D02*
X101745122Y-35686419D01*
X101745122Y-35686419D02*
X101649884Y-35638800D01*
X101649884Y-35638800D02*
X101602265Y-35591180D01*
X93998074Y-83962419D02*
X93521884Y-83962419D01*
X93521884Y-83962419D02*
X93474265Y-84438609D01*
X93474265Y-84438609D02*
X93521884Y-84390990D01*
X93521884Y-84390990D02*
X93617122Y-84343371D01*
X93617122Y-84343371D02*
X93855217Y-84343371D01*
X93855217Y-84343371D02*
X93950455Y-84390990D01*
X93950455Y-84390990D02*
X93998074Y-84438609D01*
X93998074Y-84438609D02*
X94045693Y-84533847D01*
X94045693Y-84533847D02*
X94045693Y-84771942D01*
X94045693Y-84771942D02*
X93998074Y-84867180D01*
X93998074Y-84867180D02*
X93950455Y-84914800D01*
X93950455Y-84914800D02*
X93855217Y-84962419D01*
X93855217Y-84962419D02*
X93617122Y-84962419D01*
X93617122Y-84962419D02*
X93521884Y-84914800D01*
X93521884Y-84914800D02*
X93474265Y-84867180D01*
X94331408Y-83962419D02*
X94664741Y-84962419D01*
X94664741Y-84962419D02*
X94998074Y-83962419D01*
X116604074Y-32654419D02*
X116127884Y-32654419D01*
X116127884Y-32654419D02*
X116080265Y-33130609D01*
X116080265Y-33130609D02*
X116127884Y-33082990D01*
X116127884Y-33082990D02*
X116223122Y-33035371D01*
X116223122Y-33035371D02*
X116461217Y-33035371D01*
X116461217Y-33035371D02*
X116556455Y-33082990D01*
X116556455Y-33082990D02*
X116604074Y-33130609D01*
X116604074Y-33130609D02*
X116651693Y-33225847D01*
X116651693Y-33225847D02*
X116651693Y-33463942D01*
X116651693Y-33463942D02*
X116604074Y-33559180D01*
X116604074Y-33559180D02*
X116556455Y-33606800D01*
X116556455Y-33606800D02*
X116461217Y-33654419D01*
X116461217Y-33654419D02*
X116223122Y-33654419D01*
X116223122Y-33654419D02*
X116127884Y-33606800D01*
X116127884Y-33606800D02*
X116080265Y-33559180D01*
X116937408Y-32654419D02*
X117270741Y-33654419D01*
X117270741Y-33654419D02*
X117604074Y-32654419D01*
X90489693Y-60134038D02*
X90394455Y-60086419D01*
X90394455Y-60086419D02*
X90251598Y-60086419D01*
X90251598Y-60086419D02*
X90108741Y-60134038D01*
X90108741Y-60134038D02*
X90013503Y-60229276D01*
X90013503Y-60229276D02*
X89965884Y-60324514D01*
X89965884Y-60324514D02*
X89918265Y-60514990D01*
X89918265Y-60514990D02*
X89918265Y-60657847D01*
X89918265Y-60657847D02*
X89965884Y-60848323D01*
X89965884Y-60848323D02*
X90013503Y-60943561D01*
X90013503Y-60943561D02*
X90108741Y-61038800D01*
X90108741Y-61038800D02*
X90251598Y-61086419D01*
X90251598Y-61086419D02*
X90346836Y-61086419D01*
X90346836Y-61086419D02*
X90489693Y-61038800D01*
X90489693Y-61038800D02*
X90537312Y-60991180D01*
X90537312Y-60991180D02*
X90537312Y-60657847D01*
X90537312Y-60657847D02*
X90346836Y-60657847D01*
X90965884Y-61086419D02*
X90965884Y-60086419D01*
X90965884Y-60086419D02*
X91537312Y-61086419D01*
X91537312Y-61086419D02*
X91537312Y-60086419D01*
X92013503Y-61086419D02*
X92013503Y-60086419D01*
X92013503Y-60086419D02*
X92251598Y-60086419D01*
X92251598Y-60086419D02*
X92394455Y-60134038D01*
X92394455Y-60134038D02*
X92489693Y-60229276D01*
X92489693Y-60229276D02*
X92537312Y-60324514D01*
X92537312Y-60324514D02*
X92584931Y-60514990D01*
X92584931Y-60514990D02*
X92584931Y-60657847D01*
X92584931Y-60657847D02*
X92537312Y-60848323D01*
X92537312Y-60848323D02*
X92489693Y-60943561D01*
X92489693Y-60943561D02*
X92394455Y-61038800D01*
X92394455Y-61038800D02*
X92251598Y-61086419D01*
X92251598Y-61086419D02*
X92013503Y-61086419D01*
X96061884Y-61086419D02*
X96061884Y-60086419D01*
X96728550Y-60086419D02*
X96919026Y-60086419D01*
X96919026Y-60086419D02*
X97014264Y-60134038D01*
X97014264Y-60134038D02*
X97109502Y-60229276D01*
X97109502Y-60229276D02*
X97157121Y-60419752D01*
X97157121Y-60419752D02*
X97157121Y-60753085D01*
X97157121Y-60753085D02*
X97109502Y-60943561D01*
X97109502Y-60943561D02*
X97014264Y-61038800D01*
X97014264Y-61038800D02*
X96919026Y-61086419D01*
X96919026Y-61086419D02*
X96728550Y-61086419D01*
X96728550Y-61086419D02*
X96633312Y-61038800D01*
X96633312Y-61038800D02*
X96538074Y-60943561D01*
X96538074Y-60943561D02*
X96490455Y-60753085D01*
X96490455Y-60753085D02*
X96490455Y-60419752D01*
X96490455Y-60419752D02*
X96538074Y-60229276D01*
X96538074Y-60229276D02*
X96633312Y-60134038D01*
X96633312Y-60134038D02*
X96728550Y-60086419D01*
X94299693Y-97726038D02*
X94204455Y-97678419D01*
X94204455Y-97678419D02*
X94061598Y-97678419D01*
X94061598Y-97678419D02*
X93918741Y-97726038D01*
X93918741Y-97726038D02*
X93823503Y-97821276D01*
X93823503Y-97821276D02*
X93775884Y-97916514D01*
X93775884Y-97916514D02*
X93728265Y-98106990D01*
X93728265Y-98106990D02*
X93728265Y-98249847D01*
X93728265Y-98249847D02*
X93775884Y-98440323D01*
X93775884Y-98440323D02*
X93823503Y-98535561D01*
X93823503Y-98535561D02*
X93918741Y-98630800D01*
X93918741Y-98630800D02*
X94061598Y-98678419D01*
X94061598Y-98678419D02*
X94156836Y-98678419D01*
X94156836Y-98678419D02*
X94299693Y-98630800D01*
X94299693Y-98630800D02*
X94347312Y-98583180D01*
X94347312Y-98583180D02*
X94347312Y-98249847D01*
X94347312Y-98249847D02*
X94156836Y-98249847D01*
X94775884Y-98678419D02*
X94775884Y-97678419D01*
X94775884Y-97678419D02*
X95156836Y-97678419D01*
X95156836Y-97678419D02*
X95252074Y-97726038D01*
X95252074Y-97726038D02*
X95299693Y-97773657D01*
X95299693Y-97773657D02*
X95347312Y-97868895D01*
X95347312Y-97868895D02*
X95347312Y-98011752D01*
X95347312Y-98011752D02*
X95299693Y-98106990D01*
X95299693Y-98106990D02*
X95252074Y-98154609D01*
X95252074Y-98154609D02*
X95156836Y-98202228D01*
X95156836Y-98202228D02*
X94775884Y-98202228D01*
X95775884Y-98678419D02*
X95775884Y-97678419D01*
X96442550Y-97678419D02*
X96633026Y-97678419D01*
X96633026Y-97678419D02*
X96728264Y-97726038D01*
X96728264Y-97726038D02*
X96823502Y-97821276D01*
X96823502Y-97821276D02*
X96871121Y-98011752D01*
X96871121Y-98011752D02*
X96871121Y-98345085D01*
X96871121Y-98345085D02*
X96823502Y-98535561D01*
X96823502Y-98535561D02*
X96728264Y-98630800D01*
X96728264Y-98630800D02*
X96633026Y-98678419D01*
X96633026Y-98678419D02*
X96442550Y-98678419D01*
X96442550Y-98678419D02*
X96347312Y-98630800D01*
X96347312Y-98630800D02*
X96252074Y-98535561D01*
X96252074Y-98535561D02*
X96204455Y-98345085D01*
X96204455Y-98345085D02*
X96204455Y-98011752D01*
X96204455Y-98011752D02*
X96252074Y-97821276D01*
X96252074Y-97821276D02*
X96347312Y-97726038D01*
X96347312Y-97726038D02*
X96442550Y-97678419D01*
X112063884Y-33714419D02*
X112063884Y-32714419D01*
X112063884Y-32714419D02*
X112301979Y-32714419D01*
X112301979Y-32714419D02*
X112444836Y-32762038D01*
X112444836Y-32762038D02*
X112540074Y-32857276D01*
X112540074Y-32857276D02*
X112587693Y-32952514D01*
X112587693Y-32952514D02*
X112635312Y-33142990D01*
X112635312Y-33142990D02*
X112635312Y-33285847D01*
X112635312Y-33285847D02*
X112587693Y-33476323D01*
X112587693Y-33476323D02*
X112540074Y-33571561D01*
X112540074Y-33571561D02*
X112444836Y-33666800D01*
X112444836Y-33666800D02*
X112301979Y-33714419D01*
X112301979Y-33714419D02*
X112063884Y-33714419D01*
X113492455Y-33714419D02*
X113492455Y-33190609D01*
X113492455Y-33190609D02*
X113444836Y-33095371D01*
X113444836Y-33095371D02*
X113349598Y-33047752D01*
X113349598Y-33047752D02*
X113159122Y-33047752D01*
X113159122Y-33047752D02*
X113063884Y-33095371D01*
X113492455Y-33666800D02*
X113397217Y-33714419D01*
X113397217Y-33714419D02*
X113159122Y-33714419D01*
X113159122Y-33714419D02*
X113063884Y-33666800D01*
X113063884Y-33666800D02*
X113016265Y-33571561D01*
X113016265Y-33571561D02*
X113016265Y-33476323D01*
X113016265Y-33476323D02*
X113063884Y-33381085D01*
X113063884Y-33381085D02*
X113159122Y-33333466D01*
X113159122Y-33333466D02*
X113397217Y-33333466D01*
X113397217Y-33333466D02*
X113492455Y-33285847D01*
X113825789Y-33047752D02*
X114206741Y-33047752D01*
X113968646Y-32714419D02*
X113968646Y-33571561D01*
X113968646Y-33571561D02*
X114016265Y-33666800D01*
X114016265Y-33666800D02*
X114111503Y-33714419D01*
X114111503Y-33714419D02*
X114206741Y-33714419D01*
X114968646Y-33714419D02*
X114968646Y-33190609D01*
X114968646Y-33190609D02*
X114921027Y-33095371D01*
X114921027Y-33095371D02*
X114825789Y-33047752D01*
X114825789Y-33047752D02*
X114635313Y-33047752D01*
X114635313Y-33047752D02*
X114540075Y-33095371D01*
X114968646Y-33666800D02*
X114873408Y-33714419D01*
X114873408Y-33714419D02*
X114635313Y-33714419D01*
X114635313Y-33714419D02*
X114540075Y-33666800D01*
X114540075Y-33666800D02*
X114492456Y-33571561D01*
X114492456Y-33571561D02*
X114492456Y-33476323D01*
X114492456Y-33476323D02*
X114540075Y-33381085D01*
X114540075Y-33381085D02*
X114635313Y-33333466D01*
X114635313Y-33333466D02*
X114873408Y-33333466D01*
X114873408Y-33333466D02*
X114968646Y-33285847D01*
X96061884Y-84962419D02*
X96061884Y-83962419D01*
X96728550Y-83962419D02*
X96919026Y-83962419D01*
X96919026Y-83962419D02*
X97014264Y-84010038D01*
X97014264Y-84010038D02*
X97109502Y-84105276D01*
X97109502Y-84105276D02*
X97157121Y-84295752D01*
X97157121Y-84295752D02*
X97157121Y-84629085D01*
X97157121Y-84629085D02*
X97109502Y-84819561D01*
X97109502Y-84819561D02*
X97014264Y-84914800D01*
X97014264Y-84914800D02*
X96919026Y-84962419D01*
X96919026Y-84962419D02*
X96728550Y-84962419D01*
X96728550Y-84962419D02*
X96633312Y-84914800D01*
X96633312Y-84914800D02*
X96538074Y-84819561D01*
X96538074Y-84819561D02*
X96490455Y-84629085D01*
X96490455Y-84629085D02*
X96490455Y-84295752D01*
X96490455Y-84295752D02*
X96538074Y-84105276D01*
X96538074Y-84105276D02*
X96633312Y-84010038D01*
X96633312Y-84010038D02*
X96728550Y-83962419D01*
X99014646Y-34686419D02*
X99633693Y-34686419D01*
X99633693Y-34686419D02*
X99300360Y-35067371D01*
X99300360Y-35067371D02*
X99443217Y-35067371D01*
X99443217Y-35067371D02*
X99538455Y-35114990D01*
X99538455Y-35114990D02*
X99586074Y-35162609D01*
X99586074Y-35162609D02*
X99633693Y-35257847D01*
X99633693Y-35257847D02*
X99633693Y-35495942D01*
X99633693Y-35495942D02*
X99586074Y-35591180D01*
X99586074Y-35591180D02*
X99538455Y-35638800D01*
X99538455Y-35638800D02*
X99443217Y-35686419D01*
X99443217Y-35686419D02*
X99157503Y-35686419D01*
X99157503Y-35686419D02*
X99062265Y-35638800D01*
X99062265Y-35638800D02*
X99014646Y-35591180D01*
X93998074Y-60086419D02*
X93521884Y-60086419D01*
X93521884Y-60086419D02*
X93474265Y-60562609D01*
X93474265Y-60562609D02*
X93521884Y-60514990D01*
X93521884Y-60514990D02*
X93617122Y-60467371D01*
X93617122Y-60467371D02*
X93855217Y-60467371D01*
X93855217Y-60467371D02*
X93950455Y-60514990D01*
X93950455Y-60514990D02*
X93998074Y-60562609D01*
X93998074Y-60562609D02*
X94045693Y-60657847D01*
X94045693Y-60657847D02*
X94045693Y-60895942D01*
X94045693Y-60895942D02*
X93998074Y-60991180D01*
X93998074Y-60991180D02*
X93950455Y-61038800D01*
X93950455Y-61038800D02*
X93855217Y-61086419D01*
X93855217Y-61086419D02*
X93617122Y-61086419D01*
X93617122Y-61086419D02*
X93521884Y-61038800D01*
X93521884Y-61038800D02*
X93474265Y-60991180D01*
X94331408Y-60086419D02*
X94664741Y-61086419D01*
X94664741Y-61086419D02*
X94998074Y-60086419D01*
X99125693Y-50228038D02*
X99030455Y-50180419D01*
X99030455Y-50180419D02*
X98887598Y-50180419D01*
X98887598Y-50180419D02*
X98744741Y-50228038D01*
X98744741Y-50228038D02*
X98649503Y-50323276D01*
X98649503Y-50323276D02*
X98601884Y-50418514D01*
X98601884Y-50418514D02*
X98554265Y-50608990D01*
X98554265Y-50608990D02*
X98554265Y-50751847D01*
X98554265Y-50751847D02*
X98601884Y-50942323D01*
X98601884Y-50942323D02*
X98649503Y-51037561D01*
X98649503Y-51037561D02*
X98744741Y-51132800D01*
X98744741Y-51132800D02*
X98887598Y-51180419D01*
X98887598Y-51180419D02*
X98982836Y-51180419D01*
X98982836Y-51180419D02*
X99125693Y-51132800D01*
X99125693Y-51132800D02*
X99173312Y-51085180D01*
X99173312Y-51085180D02*
X99173312Y-50751847D01*
X99173312Y-50751847D02*
X98982836Y-50751847D01*
X99601884Y-51180419D02*
X99601884Y-50180419D01*
X99601884Y-50180419D02*
X100173312Y-51180419D01*
X100173312Y-51180419D02*
X100173312Y-50180419D01*
X100649503Y-51180419D02*
X100649503Y-50180419D01*
X100649503Y-50180419D02*
X100887598Y-50180419D01*
X100887598Y-50180419D02*
X101030455Y-50228038D01*
X101030455Y-50228038D02*
X101125693Y-50323276D01*
X101125693Y-50323276D02*
X101173312Y-50418514D01*
X101173312Y-50418514D02*
X101220931Y-50608990D01*
X101220931Y-50608990D02*
X101220931Y-50751847D01*
X101220931Y-50751847D02*
X101173312Y-50942323D01*
X101173312Y-50942323D02*
X101125693Y-51037561D01*
X101125693Y-51037561D02*
X101030455Y-51132800D01*
X101030455Y-51132800D02*
X100887598Y-51180419D01*
X100887598Y-51180419D02*
X100649503Y-51180419D01*
X98601884Y-88010419D02*
X98601884Y-87010419D01*
X98601884Y-87010419D02*
X98839979Y-87010419D01*
X98839979Y-87010419D02*
X98982836Y-87058038D01*
X98982836Y-87058038D02*
X99078074Y-87153276D01*
X99078074Y-87153276D02*
X99125693Y-87248514D01*
X99125693Y-87248514D02*
X99173312Y-87438990D01*
X99173312Y-87438990D02*
X99173312Y-87581847D01*
X99173312Y-87581847D02*
X99125693Y-87772323D01*
X99125693Y-87772323D02*
X99078074Y-87867561D01*
X99078074Y-87867561D02*
X98982836Y-87962800D01*
X98982836Y-87962800D02*
X98839979Y-88010419D01*
X98839979Y-88010419D02*
X98601884Y-88010419D01*
X99506646Y-87010419D02*
X100173312Y-87010419D01*
X100173312Y-87010419D02*
X99744741Y-88010419D01*
X100094074Y-45100419D02*
X99617884Y-45100419D01*
X99617884Y-45100419D02*
X99570265Y-45576609D01*
X99570265Y-45576609D02*
X99617884Y-45528990D01*
X99617884Y-45528990D02*
X99713122Y-45481371D01*
X99713122Y-45481371D02*
X99951217Y-45481371D01*
X99951217Y-45481371D02*
X100046455Y-45528990D01*
X100046455Y-45528990D02*
X100094074Y-45576609D01*
X100094074Y-45576609D02*
X100141693Y-45671847D01*
X100141693Y-45671847D02*
X100141693Y-45909942D01*
X100141693Y-45909942D02*
X100094074Y-46005180D01*
X100094074Y-46005180D02*
X100046455Y-46052800D01*
X100046455Y-46052800D02*
X99951217Y-46100419D01*
X99951217Y-46100419D02*
X99713122Y-46100419D01*
X99713122Y-46100419D02*
X99617884Y-46052800D01*
X99617884Y-46052800D02*
X99570265Y-46005180D01*
X100427408Y-45100419D02*
X100760741Y-46100419D01*
X100760741Y-46100419D02*
X101094074Y-45100419D01*
X98601884Y-81914419D02*
X98601884Y-80914419D01*
X98601884Y-80914419D02*
X98839979Y-80914419D01*
X98839979Y-80914419D02*
X98982836Y-80962038D01*
X98982836Y-80962038D02*
X99078074Y-81057276D01*
X99078074Y-81057276D02*
X99125693Y-81152514D01*
X99125693Y-81152514D02*
X99173312Y-81342990D01*
X99173312Y-81342990D02*
X99173312Y-81485847D01*
X99173312Y-81485847D02*
X99125693Y-81676323D01*
X99125693Y-81676323D02*
X99078074Y-81771561D01*
X99078074Y-81771561D02*
X98982836Y-81866800D01*
X98982836Y-81866800D02*
X98839979Y-81914419D01*
X98839979Y-81914419D02*
X98601884Y-81914419D01*
X100030455Y-80914419D02*
X99839979Y-80914419D01*
X99839979Y-80914419D02*
X99744741Y-80962038D01*
X99744741Y-80962038D02*
X99697122Y-81009657D01*
X99697122Y-81009657D02*
X99601884Y-81152514D01*
X99601884Y-81152514D02*
X99554265Y-81342990D01*
X99554265Y-81342990D02*
X99554265Y-81723942D01*
X99554265Y-81723942D02*
X99601884Y-81819180D01*
X99601884Y-81819180D02*
X99649503Y-81866800D01*
X99649503Y-81866800D02*
X99744741Y-81914419D01*
X99744741Y-81914419D02*
X99935217Y-81914419D01*
X99935217Y-81914419D02*
X100030455Y-81866800D01*
X100030455Y-81866800D02*
X100078074Y-81819180D01*
X100078074Y-81819180D02*
X100125693Y-81723942D01*
X100125693Y-81723942D02*
X100125693Y-81485847D01*
X100125693Y-81485847D02*
X100078074Y-81390609D01*
X100078074Y-81390609D02*
X100030455Y-81342990D01*
X100030455Y-81342990D02*
X99935217Y-81295371D01*
X99935217Y-81295371D02*
X99744741Y-81295371D01*
X99744741Y-81295371D02*
X99649503Y-81342990D01*
X99649503Y-81342990D02*
X99601884Y-81390609D01*
X99601884Y-81390609D02*
X99554265Y-81485847D01*
X104332741Y-28764990D02*
X104237503Y-28717371D01*
X104237503Y-28717371D02*
X104189884Y-28669752D01*
X104189884Y-28669752D02*
X104142265Y-28574514D01*
X104142265Y-28574514D02*
X104142265Y-28526895D01*
X104142265Y-28526895D02*
X104189884Y-28431657D01*
X104189884Y-28431657D02*
X104237503Y-28384038D01*
X104237503Y-28384038D02*
X104332741Y-28336419D01*
X104332741Y-28336419D02*
X104523217Y-28336419D01*
X104523217Y-28336419D02*
X104618455Y-28384038D01*
X104618455Y-28384038D02*
X104666074Y-28431657D01*
X104666074Y-28431657D02*
X104713693Y-28526895D01*
X104713693Y-28526895D02*
X104713693Y-28574514D01*
X104713693Y-28574514D02*
X104666074Y-28669752D01*
X104666074Y-28669752D02*
X104618455Y-28717371D01*
X104618455Y-28717371D02*
X104523217Y-28764990D01*
X104523217Y-28764990D02*
X104332741Y-28764990D01*
X104332741Y-28764990D02*
X104237503Y-28812609D01*
X104237503Y-28812609D02*
X104189884Y-28860228D01*
X104189884Y-28860228D02*
X104142265Y-28955466D01*
X104142265Y-28955466D02*
X104142265Y-29145942D01*
X104142265Y-29145942D02*
X104189884Y-29241180D01*
X104189884Y-29241180D02*
X104237503Y-29288800D01*
X104237503Y-29288800D02*
X104332741Y-29336419D01*
X104332741Y-29336419D02*
X104523217Y-29336419D01*
X104523217Y-29336419D02*
X104618455Y-29288800D01*
X104618455Y-29288800D02*
X104666074Y-29241180D01*
X104666074Y-29241180D02*
X104713693Y-29145942D01*
X104713693Y-29145942D02*
X104713693Y-28955466D01*
X104713693Y-28955466D02*
X104666074Y-28860228D01*
X104666074Y-28860228D02*
X104618455Y-28812609D01*
X104618455Y-28812609D02*
X104523217Y-28764990D01*
X118967693Y-32702038D02*
X118872455Y-32654419D01*
X118872455Y-32654419D02*
X118729598Y-32654419D01*
X118729598Y-32654419D02*
X118586741Y-32702038D01*
X118586741Y-32702038D02*
X118491503Y-32797276D01*
X118491503Y-32797276D02*
X118443884Y-32892514D01*
X118443884Y-32892514D02*
X118396265Y-33082990D01*
X118396265Y-33082990D02*
X118396265Y-33225847D01*
X118396265Y-33225847D02*
X118443884Y-33416323D01*
X118443884Y-33416323D02*
X118491503Y-33511561D01*
X118491503Y-33511561D02*
X118586741Y-33606800D01*
X118586741Y-33606800D02*
X118729598Y-33654419D01*
X118729598Y-33654419D02*
X118824836Y-33654419D01*
X118824836Y-33654419D02*
X118967693Y-33606800D01*
X118967693Y-33606800D02*
X119015312Y-33559180D01*
X119015312Y-33559180D02*
X119015312Y-33225847D01*
X119015312Y-33225847D02*
X118824836Y-33225847D01*
X119443884Y-33654419D02*
X119443884Y-32654419D01*
X119443884Y-32654419D02*
X120015312Y-33654419D01*
X120015312Y-33654419D02*
X120015312Y-32654419D01*
X120491503Y-33654419D02*
X120491503Y-32654419D01*
X120491503Y-32654419D02*
X120729598Y-32654419D01*
X120729598Y-32654419D02*
X120872455Y-32702038D01*
X120872455Y-32702038D02*
X120967693Y-32797276D01*
X120967693Y-32797276D02*
X121015312Y-32892514D01*
X121015312Y-32892514D02*
X121062931Y-33082990D01*
X121062931Y-33082990D02*
X121062931Y-33225847D01*
X121062931Y-33225847D02*
X121015312Y-33416323D01*
X121015312Y-33416323D02*
X120967693Y-33511561D01*
X120967693Y-33511561D02*
X120872455Y-33606800D01*
X120872455Y-33606800D02*
X120729598Y-33654419D01*
X120729598Y-33654419D02*
X120491503Y-33654419D01*
X98601884Y-66674419D02*
X98601884Y-65674419D01*
X98601884Y-65674419D02*
X98839979Y-65674419D01*
X98839979Y-65674419D02*
X98982836Y-65722038D01*
X98982836Y-65722038D02*
X99078074Y-65817276D01*
X99078074Y-65817276D02*
X99125693Y-65912514D01*
X99125693Y-65912514D02*
X99173312Y-66102990D01*
X99173312Y-66102990D02*
X99173312Y-66245847D01*
X99173312Y-66245847D02*
X99125693Y-66436323D01*
X99125693Y-66436323D02*
X99078074Y-66531561D01*
X99078074Y-66531561D02*
X98982836Y-66626800D01*
X98982836Y-66626800D02*
X98839979Y-66674419D01*
X98839979Y-66674419D02*
X98601884Y-66674419D01*
X99554265Y-65769657D02*
X99601884Y-65722038D01*
X99601884Y-65722038D02*
X99697122Y-65674419D01*
X99697122Y-65674419D02*
X99935217Y-65674419D01*
X99935217Y-65674419D02*
X100030455Y-65722038D01*
X100030455Y-65722038D02*
X100078074Y-65769657D01*
X100078074Y-65769657D02*
X100125693Y-65864895D01*
X100125693Y-65864895D02*
X100125693Y-65960133D01*
X100125693Y-65960133D02*
X100078074Y-66102990D01*
X100078074Y-66102990D02*
X99506646Y-66674419D01*
X99506646Y-66674419D02*
X100125693Y-66674419D01*
X92458265Y-63578800D02*
X92601122Y-63626419D01*
X92601122Y-63626419D02*
X92839217Y-63626419D01*
X92839217Y-63626419D02*
X92934455Y-63578800D01*
X92934455Y-63578800D02*
X92982074Y-63531180D01*
X92982074Y-63531180D02*
X93029693Y-63435942D01*
X93029693Y-63435942D02*
X93029693Y-63340704D01*
X93029693Y-63340704D02*
X92982074Y-63245466D01*
X92982074Y-63245466D02*
X92934455Y-63197847D01*
X92934455Y-63197847D02*
X92839217Y-63150228D01*
X92839217Y-63150228D02*
X92648741Y-63102609D01*
X92648741Y-63102609D02*
X92553503Y-63054990D01*
X92553503Y-63054990D02*
X92505884Y-63007371D01*
X92505884Y-63007371D02*
X92458265Y-62912133D01*
X92458265Y-62912133D02*
X92458265Y-62816895D01*
X92458265Y-62816895D02*
X92505884Y-62721657D01*
X92505884Y-62721657D02*
X92553503Y-62674038D01*
X92553503Y-62674038D02*
X92648741Y-62626419D01*
X92648741Y-62626419D02*
X92886836Y-62626419D01*
X92886836Y-62626419D02*
X93029693Y-62674038D01*
X93458265Y-63102609D02*
X93791598Y-63102609D01*
X93934455Y-63626419D02*
X93458265Y-63626419D01*
X93458265Y-63626419D02*
X93458265Y-62626419D01*
X93458265Y-62626419D02*
X93934455Y-62626419D01*
X94934455Y-63626419D02*
X94601122Y-63150228D01*
X94363027Y-63626419D02*
X94363027Y-62626419D01*
X94363027Y-62626419D02*
X94743979Y-62626419D01*
X94743979Y-62626419D02*
X94839217Y-62674038D01*
X94839217Y-62674038D02*
X94886836Y-62721657D01*
X94886836Y-62721657D02*
X94934455Y-62816895D01*
X94934455Y-62816895D02*
X94934455Y-62959752D01*
X94934455Y-62959752D02*
X94886836Y-63054990D01*
X94886836Y-63054990D02*
X94839217Y-63102609D01*
X94839217Y-63102609D02*
X94743979Y-63150228D01*
X94743979Y-63150228D02*
X94363027Y-63150228D01*
X95220170Y-62626419D02*
X95553503Y-63626419D01*
X95553503Y-63626419D02*
X95886836Y-62626419D01*
X96410646Y-62626419D02*
X96601122Y-62626419D01*
X96601122Y-62626419D02*
X96696360Y-62674038D01*
X96696360Y-62674038D02*
X96791598Y-62769276D01*
X96791598Y-62769276D02*
X96839217Y-62959752D01*
X96839217Y-62959752D02*
X96839217Y-63293085D01*
X96839217Y-63293085D02*
X96791598Y-63483561D01*
X96791598Y-63483561D02*
X96696360Y-63578800D01*
X96696360Y-63578800D02*
X96601122Y-63626419D01*
X96601122Y-63626419D02*
X96410646Y-63626419D01*
X96410646Y-63626419D02*
X96315408Y-63578800D01*
X96315408Y-63578800D02*
X96220170Y-63483561D01*
X96220170Y-63483561D02*
X96172551Y-63293085D01*
X96172551Y-63293085D02*
X96172551Y-62959752D01*
X96172551Y-62959752D02*
X96220170Y-62769276D01*
X96220170Y-62769276D02*
X96315408Y-62674038D01*
X96315408Y-62674038D02*
X96410646Y-62626419D01*
X97220170Y-63578800D02*
X97363027Y-63626419D01*
X97363027Y-63626419D02*
X97601122Y-63626419D01*
X97601122Y-63626419D02*
X97696360Y-63578800D01*
X97696360Y-63578800D02*
X97743979Y-63531180D01*
X97743979Y-63531180D02*
X97791598Y-63435942D01*
X97791598Y-63435942D02*
X97791598Y-63340704D01*
X97791598Y-63340704D02*
X97743979Y-63245466D01*
X97743979Y-63245466D02*
X97696360Y-63197847D01*
X97696360Y-63197847D02*
X97601122Y-63150228D01*
X97601122Y-63150228D02*
X97410646Y-63102609D01*
X97410646Y-63102609D02*
X97315408Y-63054990D01*
X97315408Y-63054990D02*
X97267789Y-63007371D01*
X97267789Y-63007371D02*
X97220170Y-62912133D01*
X97220170Y-62912133D02*
X97220170Y-62816895D01*
X97220170Y-62816895D02*
X97267789Y-62721657D01*
X97267789Y-62721657D02*
X97315408Y-62674038D01*
X97315408Y-62674038D02*
X97410646Y-62626419D01*
X97410646Y-62626419D02*
X97648741Y-62626419D01*
X97648741Y-62626419D02*
X97791598Y-62674038D01*
X98601884Y-91820419D02*
X98601884Y-90820419D01*
X98601884Y-90820419D02*
X98839979Y-90820419D01*
X98839979Y-90820419D02*
X98982836Y-90868038D01*
X98982836Y-90868038D02*
X99078074Y-90963276D01*
X99078074Y-90963276D02*
X99125693Y-91058514D01*
X99125693Y-91058514D02*
X99173312Y-91248990D01*
X99173312Y-91248990D02*
X99173312Y-91391847D01*
X99173312Y-91391847D02*
X99125693Y-91582323D01*
X99125693Y-91582323D02*
X99078074Y-91677561D01*
X99078074Y-91677561D02*
X98982836Y-91772800D01*
X98982836Y-91772800D02*
X98839979Y-91820419D01*
X98839979Y-91820419D02*
X98601884Y-91820419D01*
X99744741Y-91248990D02*
X99649503Y-91201371D01*
X99649503Y-91201371D02*
X99601884Y-91153752D01*
X99601884Y-91153752D02*
X99554265Y-91058514D01*
X99554265Y-91058514D02*
X99554265Y-91010895D01*
X99554265Y-91010895D02*
X99601884Y-90915657D01*
X99601884Y-90915657D02*
X99649503Y-90868038D01*
X99649503Y-90868038D02*
X99744741Y-90820419D01*
X99744741Y-90820419D02*
X99935217Y-90820419D01*
X99935217Y-90820419D02*
X100030455Y-90868038D01*
X100030455Y-90868038D02*
X100078074Y-90915657D01*
X100078074Y-90915657D02*
X100125693Y-91010895D01*
X100125693Y-91010895D02*
X100125693Y-91058514D01*
X100125693Y-91058514D02*
X100078074Y-91153752D01*
X100078074Y-91153752D02*
X100030455Y-91201371D01*
X100030455Y-91201371D02*
X99935217Y-91248990D01*
X99935217Y-91248990D02*
X99744741Y-91248990D01*
X99744741Y-91248990D02*
X99649503Y-91296609D01*
X99649503Y-91296609D02*
X99601884Y-91344228D01*
X99601884Y-91344228D02*
X99554265Y-91439466D01*
X99554265Y-91439466D02*
X99554265Y-91629942D01*
X99554265Y-91629942D02*
X99601884Y-91725180D01*
X99601884Y-91725180D02*
X99649503Y-91772800D01*
X99649503Y-91772800D02*
X99744741Y-91820419D01*
X99744741Y-91820419D02*
X99935217Y-91820419D01*
X99935217Y-91820419D02*
X100030455Y-91772800D01*
X100030455Y-91772800D02*
X100078074Y-91725180D01*
X100078074Y-91725180D02*
X100125693Y-91629942D01*
X100125693Y-91629942D02*
X100125693Y-91439466D01*
X100125693Y-91439466D02*
X100078074Y-91344228D01*
X100078074Y-91344228D02*
X100030455Y-91296609D01*
X100030455Y-91296609D02*
X99935217Y-91248990D01*
X98601884Y-78104419D02*
X98601884Y-77104419D01*
X98601884Y-77104419D02*
X98839979Y-77104419D01*
X98839979Y-77104419D02*
X98982836Y-77152038D01*
X98982836Y-77152038D02*
X99078074Y-77247276D01*
X99078074Y-77247276D02*
X99125693Y-77342514D01*
X99125693Y-77342514D02*
X99173312Y-77532990D01*
X99173312Y-77532990D02*
X99173312Y-77675847D01*
X99173312Y-77675847D02*
X99125693Y-77866323D01*
X99125693Y-77866323D02*
X99078074Y-77961561D01*
X99078074Y-77961561D02*
X98982836Y-78056800D01*
X98982836Y-78056800D02*
X98839979Y-78104419D01*
X98839979Y-78104419D02*
X98601884Y-78104419D01*
X100078074Y-77104419D02*
X99601884Y-77104419D01*
X99601884Y-77104419D02*
X99554265Y-77580609D01*
X99554265Y-77580609D02*
X99601884Y-77532990D01*
X99601884Y-77532990D02*
X99697122Y-77485371D01*
X99697122Y-77485371D02*
X99935217Y-77485371D01*
X99935217Y-77485371D02*
X100030455Y-77532990D01*
X100030455Y-77532990D02*
X100078074Y-77580609D01*
X100078074Y-77580609D02*
X100125693Y-77675847D01*
X100125693Y-77675847D02*
X100125693Y-77913942D01*
X100125693Y-77913942D02*
X100078074Y-78009180D01*
X100078074Y-78009180D02*
X100030455Y-78056800D01*
X100030455Y-78056800D02*
X99935217Y-78104419D01*
X99935217Y-78104419D02*
X99697122Y-78104419D01*
X99697122Y-78104419D02*
X99601884Y-78056800D01*
X99601884Y-78056800D02*
X99554265Y-78009180D01*
X98601884Y-74040419D02*
X98601884Y-73040419D01*
X98601884Y-73040419D02*
X98839979Y-73040419D01*
X98839979Y-73040419D02*
X98982836Y-73088038D01*
X98982836Y-73088038D02*
X99078074Y-73183276D01*
X99078074Y-73183276D02*
X99125693Y-73278514D01*
X99125693Y-73278514D02*
X99173312Y-73468990D01*
X99173312Y-73468990D02*
X99173312Y-73611847D01*
X99173312Y-73611847D02*
X99125693Y-73802323D01*
X99125693Y-73802323D02*
X99078074Y-73897561D01*
X99078074Y-73897561D02*
X98982836Y-73992800D01*
X98982836Y-73992800D02*
X98839979Y-74040419D01*
X98839979Y-74040419D02*
X98601884Y-74040419D01*
X100030455Y-73373752D02*
X100030455Y-74040419D01*
X99792360Y-72992800D02*
X99554265Y-73707085D01*
X99554265Y-73707085D02*
X100173312Y-73707085D01*
X98411312Y-37369180D02*
X98363693Y-37416800D01*
X98363693Y-37416800D02*
X98220836Y-37464419D01*
X98220836Y-37464419D02*
X98125598Y-37464419D01*
X98125598Y-37464419D02*
X97982741Y-37416800D01*
X97982741Y-37416800D02*
X97887503Y-37321561D01*
X97887503Y-37321561D02*
X97839884Y-37226323D01*
X97839884Y-37226323D02*
X97792265Y-37035847D01*
X97792265Y-37035847D02*
X97792265Y-36892990D01*
X97792265Y-36892990D02*
X97839884Y-36702514D01*
X97839884Y-36702514D02*
X97887503Y-36607276D01*
X97887503Y-36607276D02*
X97982741Y-36512038D01*
X97982741Y-36512038D02*
X98125598Y-36464419D01*
X98125598Y-36464419D02*
X98220836Y-36464419D01*
X98220836Y-36464419D02*
X98363693Y-36512038D01*
X98363693Y-36512038D02*
X98411312Y-36559657D01*
X99411312Y-37369180D02*
X99363693Y-37416800D01*
X99363693Y-37416800D02*
X99220836Y-37464419D01*
X99220836Y-37464419D02*
X99125598Y-37464419D01*
X99125598Y-37464419D02*
X98982741Y-37416800D01*
X98982741Y-37416800D02*
X98887503Y-37321561D01*
X98887503Y-37321561D02*
X98839884Y-37226323D01*
X98839884Y-37226323D02*
X98792265Y-37035847D01*
X98792265Y-37035847D02*
X98792265Y-36892990D01*
X98792265Y-36892990D02*
X98839884Y-36702514D01*
X98839884Y-36702514D02*
X98887503Y-36607276D01*
X98887503Y-36607276D02*
X98982741Y-36512038D01*
X98982741Y-36512038D02*
X99125598Y-36464419D01*
X99125598Y-36464419D02*
X99220836Y-36464419D01*
X99220836Y-36464419D02*
X99363693Y-36512038D01*
X99363693Y-36512038D02*
X99411312Y-36559657D01*
X100363693Y-37464419D02*
X99792265Y-37464419D01*
X100077979Y-37464419D02*
X100077979Y-36464419D01*
X100077979Y-36464419D02*
X99982741Y-36607276D01*
X99982741Y-36607276D02*
X99887503Y-36702514D01*
X99887503Y-36702514D02*
X99792265Y-36750133D01*
X101316074Y-37464419D02*
X100744646Y-37464419D01*
X101030360Y-37464419D02*
X101030360Y-36464419D01*
X101030360Y-36464419D02*
X100935122Y-36607276D01*
X100935122Y-36607276D02*
X100839884Y-36702514D01*
X100839884Y-36702514D02*
X100744646Y-36750133D01*
X101935122Y-36464419D02*
X102030360Y-36464419D01*
X102030360Y-36464419D02*
X102125598Y-36512038D01*
X102125598Y-36512038D02*
X102173217Y-36559657D01*
X102173217Y-36559657D02*
X102220836Y-36654895D01*
X102220836Y-36654895D02*
X102268455Y-36845371D01*
X102268455Y-36845371D02*
X102268455Y-37083466D01*
X102268455Y-37083466D02*
X102220836Y-37273942D01*
X102220836Y-37273942D02*
X102173217Y-37369180D01*
X102173217Y-37369180D02*
X102125598Y-37416800D01*
X102125598Y-37416800D02*
X102030360Y-37464419D01*
X102030360Y-37464419D02*
X101935122Y-37464419D01*
X101935122Y-37464419D02*
X101839884Y-37416800D01*
X101839884Y-37416800D02*
X101792265Y-37369180D01*
X101792265Y-37369180D02*
X101744646Y-37273942D01*
X101744646Y-37273942D02*
X101697027Y-37083466D01*
X101697027Y-37083466D02*
X101697027Y-36845371D01*
X101697027Y-36845371D02*
X101744646Y-36654895D01*
X101744646Y-36654895D02*
X101792265Y-36559657D01*
X101792265Y-36559657D02*
X101839884Y-36512038D01*
X101839884Y-36512038D02*
X101935122Y-36464419D01*
X103220836Y-37464419D02*
X102649408Y-37464419D01*
X102935122Y-37464419D02*
X102935122Y-36464419D01*
X102935122Y-36464419D02*
X102839884Y-36607276D01*
X102839884Y-36607276D02*
X102744646Y-36702514D01*
X102744646Y-36702514D02*
X102649408Y-36750133D01*
D11*
X110508095Y-103086819D02*
X110508095Y-103896342D01*
X110508095Y-103896342D02*
X110555714Y-103991580D01*
X110555714Y-103991580D02*
X110603333Y-104039200D01*
X110603333Y-104039200D02*
X110698571Y-104086819D01*
X110698571Y-104086819D02*
X110889047Y-104086819D01*
X110889047Y-104086819D02*
X110984285Y-104039200D01*
X110984285Y-104039200D02*
X111031904Y-103991580D01*
X111031904Y-103991580D02*
X111079523Y-103896342D01*
X111079523Y-103896342D02*
X111079523Y-103086819D01*
X111508095Y-104039200D02*
X111650952Y-104086819D01*
X111650952Y-104086819D02*
X111889047Y-104086819D01*
X111889047Y-104086819D02*
X111984285Y-104039200D01*
X111984285Y-104039200D02*
X112031904Y-103991580D01*
X112031904Y-103991580D02*
X112079523Y-103896342D01*
X112079523Y-103896342D02*
X112079523Y-103801104D01*
X112079523Y-103801104D02*
X112031904Y-103705866D01*
X112031904Y-103705866D02*
X111984285Y-103658247D01*
X111984285Y-103658247D02*
X111889047Y-103610628D01*
X111889047Y-103610628D02*
X111698571Y-103563009D01*
X111698571Y-103563009D02*
X111603333Y-103515390D01*
X111603333Y-103515390D02*
X111555714Y-103467771D01*
X111555714Y-103467771D02*
X111508095Y-103372533D01*
X111508095Y-103372533D02*
X111508095Y-103277295D01*
X111508095Y-103277295D02*
X111555714Y-103182057D01*
X111555714Y-103182057D02*
X111603333Y-103134438D01*
X111603333Y-103134438D02*
X111698571Y-103086819D01*
X111698571Y-103086819D02*
X111936666Y-103086819D01*
X111936666Y-103086819D02*
X112079523Y-103134438D01*
X112841428Y-103563009D02*
X112984285Y-103610628D01*
X112984285Y-103610628D02*
X113031904Y-103658247D01*
X113031904Y-103658247D02*
X113079523Y-103753485D01*
X113079523Y-103753485D02*
X113079523Y-103896342D01*
X113079523Y-103896342D02*
X113031904Y-103991580D01*
X113031904Y-103991580D02*
X112984285Y-104039200D01*
X112984285Y-104039200D02*
X112889047Y-104086819D01*
X112889047Y-104086819D02*
X112508095Y-104086819D01*
X112508095Y-104086819D02*
X112508095Y-103086819D01*
X112508095Y-103086819D02*
X112841428Y-103086819D01*
X112841428Y-103086819D02*
X112936666Y-103134438D01*
X112936666Y-103134438D02*
X112984285Y-103182057D01*
X112984285Y-103182057D02*
X113031904Y-103277295D01*
X113031904Y-103277295D02*
X113031904Y-103372533D01*
X113031904Y-103372533D02*
X112984285Y-103467771D01*
X112984285Y-103467771D02*
X112936666Y-103515390D01*
X112936666Y-103515390D02*
X112841428Y-103563009D01*
X112841428Y-103563009D02*
X112508095Y-103563009D01*
D12*
%TO.C,J7*%
X90110000Y-93666000D02*
X90110000Y-96326000D01*
X95250000Y-93666000D02*
X90110000Y-93666000D01*
X95250000Y-93666000D02*
X95250000Y-96326000D01*
X95250000Y-96326000D02*
X90110000Y-96326000D01*
X96520000Y-93666000D02*
X97850000Y-93666000D01*
X97850000Y-93666000D02*
X97850000Y-94996000D01*
%TO.C,A1*%
X102750000Y-64132000D02*
X102750000Y-66802000D01*
X102750000Y-69342000D02*
X102750000Y-107572000D01*
X102750000Y-107572000D02*
X107830000Y-107572000D01*
X105420000Y-66802000D02*
X102750000Y-66802000D01*
X105420000Y-69342000D02*
X102750000Y-69342000D01*
X105420000Y-69342000D02*
X105420000Y-66802000D01*
X105420000Y-69342000D02*
X105420000Y-104902000D01*
X105420000Y-104902000D02*
X102750000Y-104902000D01*
X107830000Y-99692000D02*
X115710000Y-99692000D01*
X107830000Y-110112000D02*
X107830000Y-99692000D01*
X115710000Y-99692000D02*
X115710000Y-110112000D01*
X115710000Y-110112000D02*
X107830000Y-110112000D01*
X118120000Y-66802000D02*
X118120000Y-104902000D01*
X118120000Y-66802000D02*
X120790000Y-66802000D01*
X118120000Y-104902000D02*
X120790000Y-104902000D01*
X120790000Y-64132000D02*
X102750000Y-64132000D01*
X120790000Y-107572000D02*
X115710000Y-107572000D01*
X120790000Y-107572000D02*
X120790000Y-64132000D01*
%TO.C,J2*%
X120590000Y-49530000D02*
X120590000Y-57210000D01*
X120590000Y-49530000D02*
X123250000Y-49530000D01*
X120590000Y-57210000D02*
X123250000Y-57210000D01*
X121920000Y-46930000D02*
X123250000Y-46930000D01*
X123250000Y-46930000D02*
X123250000Y-48260000D01*
X123250000Y-49530000D02*
X123250000Y-57210000D01*
%TO.C,J5*%
X90110000Y-86046000D02*
X90110000Y-88706000D01*
X95250000Y-86046000D02*
X90110000Y-86046000D01*
X95250000Y-86046000D02*
X95250000Y-88706000D01*
X95250000Y-88706000D02*
X90110000Y-88706000D01*
X96520000Y-86046000D02*
X97850000Y-86046000D01*
X97850000Y-86046000D02*
X97850000Y-87376000D01*
%TO.C,M2*%
X90110000Y-68520000D02*
X90110000Y-71180000D01*
X95250000Y-68520000D02*
X90110000Y-68520000D01*
X95250000Y-68520000D02*
X95250000Y-71180000D01*
X95250000Y-71180000D02*
X90110000Y-71180000D01*
X96520000Y-68520000D02*
X97850000Y-68520000D01*
X97850000Y-68520000D02*
X97850000Y-69850000D01*
%TO.C,M1*%
X90110000Y-64710000D02*
X90110000Y-67370000D01*
X95250000Y-64710000D02*
X90110000Y-64710000D01*
X95250000Y-64710000D02*
X95250000Y-67370000D01*
X95250000Y-67370000D02*
X90110000Y-67370000D01*
X96520000Y-64710000D02*
X97850000Y-64710000D01*
X97850000Y-64710000D02*
X97850000Y-66040000D01*
%TO.C,M3*%
X90110000Y-72330000D02*
X90110000Y-74990000D01*
X95250000Y-72330000D02*
X90110000Y-72330000D01*
X95250000Y-72330000D02*
X95250000Y-74990000D01*
X95250000Y-74990000D02*
X90110000Y-74990000D01*
X96520000Y-72330000D02*
X97850000Y-72330000D01*
X97850000Y-72330000D02*
X97850000Y-73660000D01*
%TO.C,M5*%
X90095000Y-79950000D02*
X90095000Y-82610000D01*
X95235000Y-79950000D02*
X90095000Y-79950000D01*
X95235000Y-79950000D02*
X95235000Y-82610000D01*
X95235000Y-82610000D02*
X90095000Y-82610000D01*
X96505000Y-79950000D02*
X97835000Y-79950000D01*
X97835000Y-79950000D02*
X97835000Y-81280000D01*
%TO.C,J6*%
X90110000Y-89856000D02*
X90110000Y-92516000D01*
X95250000Y-89856000D02*
X90110000Y-89856000D01*
X95250000Y-89856000D02*
X95250000Y-92516000D01*
X95250000Y-92516000D02*
X90110000Y-92516000D01*
X96520000Y-89856000D02*
X97850000Y-89856000D01*
X97850000Y-89856000D02*
X97850000Y-91186000D01*
%TO.C,M4*%
X90110000Y-76140000D02*
X90110000Y-78800000D01*
X95250000Y-76140000D02*
X90110000Y-76140000D01*
X95250000Y-76140000D02*
X95250000Y-78800000D01*
X95250000Y-78800000D02*
X90110000Y-78800000D01*
X96520000Y-76140000D02*
X97850000Y-76140000D01*
X97850000Y-76140000D02*
X97850000Y-77470000D01*
%TO.C,J3*%
X112970000Y-31810000D02*
X112970000Y-30480000D01*
X114300000Y-31810000D02*
X112970000Y-31810000D01*
X115570000Y-29150000D02*
X120710000Y-29150000D01*
X115570000Y-31810000D02*
X115570000Y-29150000D01*
X115570000Y-31810000D02*
X120710000Y-31810000D01*
X120710000Y-31810000D02*
X120710000Y-29150000D01*
%TO.C,J1*%
X102810000Y-46990000D02*
X102810000Y-59750000D01*
X102810000Y-46990000D02*
X105470000Y-46990000D01*
X102810000Y-59750000D02*
X105470000Y-59750000D01*
X104140000Y-44390000D02*
X105470000Y-44390000D01*
X105470000Y-44390000D02*
X105470000Y-45720000D01*
X105470000Y-46990000D02*
X105470000Y-59750000D01*
%TD*%
D13*
X96520000Y-94996000D03*
X93980000Y-94996000D03*
X91440000Y-94996000D03*
X104150000Y-68072000D03*
X104150000Y-70612000D03*
X104150000Y-73152000D03*
X104150000Y-75692000D03*
X104150000Y-78232000D03*
X104150000Y-80772000D03*
X104150000Y-83312000D03*
X104150000Y-85852000D03*
X104150000Y-88392000D03*
X104150000Y-90932000D03*
X104150000Y-93472000D03*
X104150000Y-96012000D03*
X104150000Y-98552000D03*
X104150000Y-101092000D03*
X104150000Y-103632000D03*
X119390000Y-103632000D03*
X119390000Y-101092000D03*
X119390000Y-98552000D03*
X119390000Y-96012000D03*
X119390000Y-93472000D03*
X119390000Y-90932000D03*
X119390000Y-88392000D03*
X119390000Y-85852000D03*
X119390000Y-83312000D03*
X119390000Y-80772000D03*
X119390000Y-78232000D03*
X119390000Y-75692000D03*
X119390000Y-73152000D03*
X119390000Y-70612000D03*
X119390000Y-68072000D03*
X121920000Y-48260000D03*
X121920000Y-50800000D03*
X121920000Y-53340000D03*
X121920000Y-55880000D03*
X91440000Y-33020000D03*
X91440000Y-106680000D03*
X96520000Y-87376000D03*
X93980000Y-87376000D03*
X91440000Y-87376000D03*
X96520000Y-69850000D03*
X93980000Y-69850000D03*
X91440000Y-69850000D03*
X96520000Y-66040000D03*
X93980000Y-66040000D03*
X91440000Y-66040000D03*
X96520000Y-73660000D03*
X93980000Y-73660000D03*
X91440000Y-73660000D03*
X96505000Y-81280000D03*
X93965000Y-81280000D03*
X91425000Y-81280000D03*
X96520000Y-91186000D03*
X93980000Y-91186000D03*
X91440000Y-91186000D03*
X96520000Y-77470000D03*
X93980000Y-77470000D03*
X91440000Y-77470000D03*
X125984000Y-33020000D03*
X125984000Y-106426000D03*
X114300000Y-30480000D03*
X116840000Y-30480000D03*
X119380000Y-30480000D03*
X104140000Y-45720000D03*
X104140000Y-48260000D03*
X104140000Y-50800000D03*
X104140000Y-53340000D03*
X104140000Y-55880000D03*
X104140000Y-58420000D03*
X96774000Y-33020000D03*
X96774000Y-30480000D03*
X99314000Y-33020000D03*
X99314000Y-30480000D03*
X101854000Y-33020000D03*
X101854000Y-30480000D03*
X104394000Y-33020000D03*
X104394000Y-30480000D03*
M02*
