%TF.GenerationSoftware,KiCad,Pcbnew,8.0.5-1.fc40*%
%TF.CreationDate,2024-11-02T20:46:04+01:00*%
%TF.ProjectId,PlaneController,506c616e-6543-46f6-9e74-726f6c6c6572,rev?*%
%TF.SameCoordinates,Original*%
%TF.FileFunction,Copper,L1,Top*%
%TF.FilePolarity,Positive*%
%FSLAX46Y46*%
G04 Gerber Fmt 4.6, Leading zero omitted, Abs format (unit mm)*
G04 Created by KiCad (PCBNEW 8.0.5-1.fc40) date 2024-11-02 20:46:04*
%MOMM*%
%LPD*%
G01*
G04 APERTURE LIST*
%TA.AperFunction,ComponentPad*%
%ADD10R,1.700000X1.700000*%
%TD*%
%TA.AperFunction,ComponentPad*%
%ADD11O,1.700000X1.700000*%
%TD*%
%TA.AperFunction,ComponentPad*%
%ADD12R,1.600000X1.600000*%
%TD*%
%TA.AperFunction,ComponentPad*%
%ADD13O,1.600000X1.600000*%
%TD*%
%TA.AperFunction,Conductor*%
%ADD14C,0.200000*%
%TD*%
%TA.AperFunction,Conductor*%
%ADD15C,0.500000*%
%TD*%
%ADD16C,0.350000*%
G04 APERTURE END LIST*
D10*
%TO.P,J7,1,Pin_1*%
%TO.N,Net-(A1-D9)*%
X96520000Y-94996000D03*
D11*
%TO.P,J7,2,Pin_2*%
%TO.N,Net-(A1-+5V)*%
X93980000Y-94996000D03*
%TO.P,J7,3,Pin_3*%
%TO.N,/GND*%
X91440000Y-94996000D03*
%TD*%
D12*
%TO.P,A1,1,TX1*%
%TO.N,unconnected-(A1-TX1-Pad1)*%
X104150000Y-68072000D03*
D13*
%TO.P,A1,2,RX1*%
%TO.N,Net-(A1-RX1)*%
X104150000Y-70612000D03*
%TO.P,A1,3,~{RESET}*%
%TO.N,unconnected-(A1-~{RESET}-Pad3)*%
X104150000Y-73152000D03*
%TO.P,A1,4,GND*%
%TO.N,/GND*%
X104150000Y-75692000D03*
%TO.P,A1,5,D2*%
%TO.N,Net-(A1-D2)*%
X104150000Y-78232000D03*
%TO.P,A1,6,D3*%
%TO.N,Net-(A1-D3)*%
X104150000Y-80772000D03*
%TO.P,A1,7,D4*%
%TO.N,Net-(A1-D4)*%
X104150000Y-83312000D03*
%TO.P,A1,8,D5*%
%TO.N,Net-(A1-D5)*%
X104150000Y-85852000D03*
%TO.P,A1,9,D6*%
%TO.N,Net-(A1-D6)*%
X104150000Y-88392000D03*
%TO.P,A1,10,D7*%
%TO.N,Net-(A1-D7)*%
X104150000Y-90932000D03*
%TO.P,A1,11,D8*%
%TO.N,Net-(A1-D8)*%
X104150000Y-93472000D03*
%TO.P,A1,12,D9*%
%TO.N,Net-(A1-D9)*%
X104150000Y-96012000D03*
%TO.P,A1,13,D10*%
%TO.N,/CSN*%
X104150000Y-98552000D03*
%TO.P,A1,14,MOSI*%
%TO.N,/MOSI*%
X104150000Y-101092000D03*
%TO.P,A1,15,MISO*%
%TO.N,/MISO*%
X104150000Y-103632000D03*
%TO.P,A1,16,SCK*%
%TO.N,/SCK*%
X119390000Y-103632000D03*
%TO.P,A1,17,3V3*%
%TO.N,/3.3V*%
X119390000Y-101092000D03*
%TO.P,A1,18,AREF*%
%TO.N,unconnected-(A1-AREF-Pad18)*%
X119390000Y-98552000D03*
%TO.P,A1,19,A0*%
%TO.N,unconnected-(A1-A0-Pad19)*%
X119390000Y-96012000D03*
%TO.P,A1,20,A1*%
%TO.N,unconnected-(A1-A1-Pad20)*%
X119390000Y-93472000D03*
%TO.P,A1,21,A2*%
%TO.N,unconnected-(A1-A2-Pad21)*%
X119390000Y-90932000D03*
%TO.P,A1,22,A3*%
%TO.N,unconnected-(A1-A3-Pad22)*%
X119390000Y-88392000D03*
%TO.P,A1,23,SDA/A4*%
%TO.N,Net-(A1-SDA{slash}A4)*%
X119390000Y-85852000D03*
%TO.P,A1,24,SCL/A5*%
%TO.N,Net-(A1-SCL{slash}A5)*%
X119390000Y-83312000D03*
%TO.P,A1,25,A6*%
%TO.N,unconnected-(A1-A6-Pad25)*%
X119390000Y-80772000D03*
%TO.P,A1,26,A7*%
%TO.N,unconnected-(A1-A7-Pad26)*%
X119390000Y-78232000D03*
%TO.P,A1,27,+5V*%
%TO.N,Net-(A1-+5V)*%
X119390000Y-75692000D03*
%TO.P,A1,28,~{RESET}*%
%TO.N,unconnected-(A1-~{RESET}-Pad28)*%
X119390000Y-73152000D03*
%TO.P,A1,29,GND*%
%TO.N,/GND*%
X119390000Y-70612000D03*
%TO.P,A1,30,VIN*%
%TO.N,unconnected-(A1-VIN-Pad30)*%
X119390000Y-68072000D03*
%TD*%
D10*
%TO.P,J2,1,Pin_1*%
%TO.N,unconnected-(J2-Pin_1-Pad1)*%
X121920000Y-48260000D03*
D11*
%TO.P,J2,2,Pin_2*%
%TO.N,unconnected-(J2-Pin_2-Pad2)*%
X121920000Y-50800000D03*
%TO.P,J2,3,Pin_3*%
%TO.N,unconnected-(J2-Pin_3-Pad3)*%
X121920000Y-53340000D03*
%TO.P,J2,4,Pin_4*%
%TO.N,unconnected-(J2-Pin_4-Pad4)*%
X121920000Y-55880000D03*
%TD*%
D10*
%TO.P,J5,1,Pin_1*%
%TO.N,Net-(A1-D7)*%
X96520000Y-87376000D03*
D11*
%TO.P,J5,2,Pin_2*%
%TO.N,Net-(A1-+5V)*%
X93980000Y-87376000D03*
%TO.P,J5,3,Pin_3*%
%TO.N,/GND*%
X91440000Y-87376000D03*
%TD*%
D10*
%TO.P,M2,1,PWM*%
%TO.N,Net-(A1-D3)*%
X96520000Y-69850000D03*
D11*
%TO.P,M2,2,+*%
%TO.N,Net-(A1-+5V)*%
X93980000Y-69850000D03*
%TO.P,M2,3,-*%
%TO.N,/GND*%
X91440000Y-69850000D03*
%TD*%
D10*
%TO.P,M1,1,PWM*%
%TO.N,Net-(A1-D2)*%
X96520000Y-66040000D03*
D11*
%TO.P,M1,2,+*%
%TO.N,Net-(A1-+5V)*%
X93980000Y-66040000D03*
%TO.P,M1,3,-*%
%TO.N,/GND*%
X91440000Y-66040000D03*
%TD*%
D10*
%TO.P,M3,1,PWM*%
%TO.N,Net-(A1-D4)*%
X96520000Y-73660000D03*
D11*
%TO.P,M3,2,+*%
%TO.N,Net-(A1-+5V)*%
X93980000Y-73660000D03*
%TO.P,M3,3,-*%
%TO.N,/GND*%
X91440000Y-73660000D03*
%TD*%
D10*
%TO.P,M5,1,PWM*%
%TO.N,Net-(A1-D6)*%
X96505000Y-81280000D03*
D11*
%TO.P,M5,2,+*%
%TO.N,Net-(A1-+5V)*%
X93965000Y-81280000D03*
%TO.P,M5,3,-*%
%TO.N,/GND*%
X91425000Y-81280000D03*
%TD*%
D10*
%TO.P,J6,1,Pin_1*%
%TO.N,Net-(A1-D8)*%
X96520000Y-91186000D03*
D11*
%TO.P,J6,2,Pin_2*%
%TO.N,Net-(A1-+5V)*%
X93980000Y-91186000D03*
%TO.P,J6,3,Pin_3*%
%TO.N,/GND*%
X91440000Y-91186000D03*
%TD*%
D10*
%TO.P,M4,1,PWM*%
%TO.N,Net-(A1-D5)*%
X96520000Y-77470000D03*
D11*
%TO.P,M4,2,+*%
%TO.N,Net-(A1-+5V)*%
X93980000Y-77470000D03*
%TO.P,M4,3,-*%
%TO.N,/GND*%
X91440000Y-77470000D03*
%TD*%
D10*
%TO.P,J3,1,Pin_1*%
%TO.N,Net-(A1-RX1)*%
X114300000Y-30480000D03*
D11*
%TO.P,J3,2,Pin_2*%
%TO.N,Net-(A1-+5V)*%
X116840000Y-30480000D03*
%TO.P,J3,3,Pin_3*%
%TO.N,/GND*%
X119380000Y-30480000D03*
%TD*%
D10*
%TO.P,J1,1,Pin_1*%
%TO.N,Net-(A1-+5V)*%
X104140000Y-45720000D03*
D11*
%TO.P,J1,2,Pin_2*%
%TO.N,unconnected-(J1-Pin_2-Pad2)*%
X104140000Y-48260000D03*
%TO.P,J1,3,Pin_3*%
%TO.N,/GND*%
X104140000Y-50800000D03*
%TO.P,J1,4,Pin_4*%
%TO.N,Net-(A1-SDA{slash}A4)*%
X104140000Y-53340000D03*
%TO.P,J1,5,Pin_5*%
%TO.N,Net-(A1-SCL{slash}A5)*%
X104140000Y-55880000D03*
%TO.P,J1,6,Pin_6*%
%TO.N,unconnected-(J1-Pin_6-Pad6)*%
X104140000Y-58420000D03*
%TD*%
D10*
%TO.P,J4,1,Pin_1*%
%TO.N,/GND*%
X96774000Y-33020000D03*
D11*
%TO.P,J4,2,Pin_2*%
%TO.N,/3.3V*%
X96774000Y-30480000D03*
%TO.P,J4,3,Pin_3*%
%TO.N,/GD01*%
X99314000Y-33020000D03*
%TO.P,J4,4,Pin_4*%
%TO.N,/CSN*%
X99314000Y-30480000D03*
%TO.P,J4,5,Pin_5*%
%TO.N,/SCK*%
X101854000Y-33020000D03*
%TO.P,J4,6,Pin_6*%
%TO.N,/MOSI*%
X101854000Y-30480000D03*
%TO.P,J4,7,Pin_7*%
%TO.N,/MISO*%
X104394000Y-33020000D03*
%TO.P,J4,8,Pin_8*%
%TO.N,/GDO2*%
X104394000Y-30480000D03*
%TD*%
D14*
%TO.N,Net-(A1-D5)*%
X96520000Y-78222000D02*
X104150000Y-85852000D01*
X96520000Y-77470000D02*
X96520000Y-78222000D01*
D15*
%TO.N,/3.3V*%
X89408000Y-110998000D02*
X119888000Y-110998000D01*
X96774000Y-30480000D02*
X94996000Y-28702000D01*
X89408000Y-28702000D02*
X87122000Y-30988000D01*
X121412000Y-103114000D02*
X119390000Y-101092000D01*
X119888000Y-110998000D02*
X121412000Y-109474000D01*
X87122000Y-30988000D02*
X87122000Y-108712000D01*
X121412000Y-109474000D02*
X121412000Y-103114000D01*
X87122000Y-108712000D02*
X89408000Y-110998000D01*
X94996000Y-28702000D02*
X89408000Y-28702000D01*
%TO.N,/GND*%
X119380000Y-33020000D02*
X114300000Y-38100000D01*
X91425000Y-56149000D02*
X91425000Y-81280000D01*
X96774000Y-35814000D02*
X99060000Y-38100000D01*
X91425000Y-94981000D02*
X91440000Y-94996000D01*
X119380000Y-30480000D02*
X119380000Y-33020000D01*
X91440000Y-55626000D02*
X91440000Y-56134000D01*
X101600000Y-65786000D02*
X101600000Y-73142000D01*
X99060000Y-38100000D02*
X91440000Y-45720000D01*
X114300000Y-38100000D02*
X99060000Y-38100000D01*
X96774000Y-33020000D02*
X96774000Y-35814000D01*
X91425000Y-81280000D02*
X91425000Y-94981000D01*
X91440000Y-56134000D02*
X91425000Y-56149000D01*
X101600000Y-65786000D02*
X91440000Y-55626000D01*
X101600000Y-73142000D02*
X104150000Y-75692000D01*
X91440000Y-45720000D02*
X91440000Y-55626000D01*
%TO.N,Net-(A1-+5V)*%
X106172000Y-45720000D02*
X114808000Y-54356000D01*
X119390000Y-75692000D02*
X114808000Y-71110000D01*
X114808000Y-71110000D02*
X114808000Y-68834000D01*
X114808000Y-54356000D02*
X114808000Y-68834000D01*
X114808000Y-68834000D02*
X114808000Y-69342000D01*
X104140000Y-45720000D02*
X106172000Y-45720000D01*
D14*
X114808000Y-71110000D02*
X114808000Y-69342000D01*
%TO.N,Net-(A1-D4)*%
X104150000Y-83312000D02*
X104150000Y-82800000D01*
X96520000Y-75170000D02*
X96520000Y-73660000D01*
X104150000Y-82800000D02*
X96520000Y-75170000D01*
%TO.N,Net-(A1-SCL{slash}A5)*%
X113030000Y-64770000D02*
X113030000Y-73406000D01*
X113030000Y-76952000D02*
X119390000Y-83312000D01*
X113030000Y-73406000D02*
X113030000Y-76952000D01*
X104140000Y-55880000D02*
X113030000Y-64770000D01*
%TO.N,Net-(A1-D2)*%
X100584000Y-74666000D02*
X100584000Y-73660000D01*
X96520000Y-66040000D02*
X100584000Y-70104000D01*
X104150000Y-78232000D02*
X100584000Y-74666000D01*
X100584000Y-70104000D02*
X100584000Y-73660000D01*
%TO.N,/MISO*%
X121250000Y-28540000D02*
X122301000Y-29591000D01*
X112278000Y-99822000D02*
X108468000Y-103632000D01*
X108874000Y-28540000D02*
X121250000Y-28540000D01*
X108468000Y-103632000D02*
X104150000Y-103632000D01*
X122301000Y-29591000D02*
X122301000Y-39243000D01*
X122301000Y-39243000D02*
X125984000Y-42926000D01*
X125984000Y-94742000D02*
X120904000Y-99822000D01*
X125984000Y-42926000D02*
X125984000Y-94742000D01*
X120904000Y-99822000D02*
X112278000Y-99822000D01*
X104394000Y-33020000D02*
X108874000Y-28540000D01*
%TO.N,Net-(A1-D3)*%
X100076000Y-76698000D02*
X104150000Y-80772000D01*
X96520000Y-69850000D02*
X100076000Y-73406000D01*
X96520000Y-69850000D02*
X96784000Y-69850000D01*
X100076000Y-73406000D02*
X100076000Y-76698000D01*
%TO.N,Net-(A1-SDA{slash}A4)*%
X112014000Y-78476000D02*
X119390000Y-85852000D01*
X112014000Y-77724000D02*
X112014000Y-72136000D01*
X112014000Y-72136000D02*
X100838000Y-60960000D01*
X112014000Y-77724000D02*
X112014000Y-78476000D01*
X100838000Y-56642000D02*
X104140000Y-53340000D01*
X100838000Y-60960000D02*
X100838000Y-56642000D01*
%TO.N,Net-(A1-D8)*%
X101864000Y-91186000D02*
X104150000Y-93472000D01*
X96520000Y-91186000D02*
X101864000Y-91186000D01*
%TO.N,Net-(A1-D9)*%
X103134000Y-94996000D02*
X104150000Y-96012000D01*
X96520000Y-94996000D02*
X103134000Y-94996000D01*
%TO.N,Net-(A1-D7)*%
X96520000Y-87376000D02*
X96520000Y-87620000D01*
X96520000Y-87376000D02*
X100594000Y-87376000D01*
X100594000Y-87376000D02*
X104150000Y-90932000D01*
%TO.N,Net-(A1-D6)*%
X97038000Y-81280000D02*
X104150000Y-88392000D01*
X96505000Y-81280000D02*
X97038000Y-81280000D01*
%TD*%
D16*
X96520000Y-94996000D03*
X93980000Y-94996000D03*
X91440000Y-94996000D03*
X104150000Y-68072000D03*
X104150000Y-70612000D03*
X104150000Y-73152000D03*
X104150000Y-75692000D03*
X104150000Y-78232000D03*
X104150000Y-80772000D03*
X104150000Y-83312000D03*
X104150000Y-85852000D03*
X104150000Y-88392000D03*
X104150000Y-90932000D03*
X104150000Y-93472000D03*
X104150000Y-96012000D03*
X104150000Y-98552000D03*
X104150000Y-101092000D03*
X104150000Y-103632000D03*
X119390000Y-103632000D03*
X119390000Y-101092000D03*
X119390000Y-98552000D03*
X119390000Y-96012000D03*
X119390000Y-93472000D03*
X119390000Y-90932000D03*
X119390000Y-88392000D03*
X119390000Y-85852000D03*
X119390000Y-83312000D03*
X119390000Y-80772000D03*
X119390000Y-78232000D03*
X119390000Y-75692000D03*
X119390000Y-73152000D03*
X119390000Y-70612000D03*
X119390000Y-68072000D03*
X121920000Y-48260000D03*
X121920000Y-50800000D03*
X121920000Y-53340000D03*
X121920000Y-55880000D03*
X91440000Y-33020000D03*
X91440000Y-106680000D03*
X96520000Y-87376000D03*
X93980000Y-87376000D03*
X91440000Y-87376000D03*
X96520000Y-69850000D03*
X93980000Y-69850000D03*
X91440000Y-69850000D03*
X96520000Y-66040000D03*
X93980000Y-66040000D03*
X91440000Y-66040000D03*
X96520000Y-73660000D03*
X93980000Y-73660000D03*
X91440000Y-73660000D03*
X96505000Y-81280000D03*
X93965000Y-81280000D03*
X91425000Y-81280000D03*
X96520000Y-91186000D03*
X93980000Y-91186000D03*
X91440000Y-91186000D03*
X96520000Y-77470000D03*
X93980000Y-77470000D03*
X91440000Y-77470000D03*
X125984000Y-33020000D03*
X125984000Y-106426000D03*
X114300000Y-30480000D03*
X116840000Y-30480000D03*
X119380000Y-30480000D03*
X104140000Y-45720000D03*
X104140000Y-48260000D03*
X104140000Y-50800000D03*
X104140000Y-53340000D03*
X104140000Y-55880000D03*
X104140000Y-58420000D03*
X96774000Y-33020000D03*
X96774000Y-30480000D03*
X99314000Y-33020000D03*
X99314000Y-30480000D03*
X101854000Y-33020000D03*
X101854000Y-30480000D03*
X104394000Y-33020000D03*
X104394000Y-30480000D03*
M02*
