M48
; DRILL file {KiCad 8.0.4-8.0.4-0~ubuntu22.04.1} date 2024-08-11T20:10:20+0200
; FORMAT={-:-/ absolute / metric / decimal}
; #@! TF.CreationDate,2024-08-11T20:10:20+02:00
; #@! TF.GenerationSoftware,Kicad,Pcbnew,8.0.4-8.0.4-0~ubuntu22.04.1
; #@! TF.FileFunction,Plated,1,2,PTH
FMAT,2
METRIC
; #@! TA.AperFunction,Plated,PTH,ComponentDrill
T1C1.000
%
G90
G05
T1
X81.28Y-81.28
X81.28Y-85.93
X81.28Y-90.58
X81.28Y-95.23
X81.28Y-99.88
X83.82Y-81.28
X83.82Y-85.93
X83.82Y-90.58
X83.82Y-95.23
X83.82Y-99.88
X86.36Y-81.28
X86.36Y-85.93
X86.36Y-90.58
X86.36Y-95.23
X86.36Y-99.88
X104.14Y-45.72
X104.14Y-48.26
X104.14Y-50.8
X104.14Y-53.34
X104.14Y-55.88
X104.14Y-58.42
X104.15Y-72.39
X104.15Y-74.93
X104.15Y-77.47
X104.15Y-80.01
X104.15Y-82.55
X104.15Y-85.09
X104.15Y-87.63
X104.15Y-90.17
X104.15Y-92.71
X104.15Y-95.25
X104.15Y-97.79
X104.15Y-100.33
X104.15Y-102.87
X104.15Y-105.41
X104.15Y-107.95
X111.76Y-33.02
X114.3Y-33.02
X119.39Y-72.39
X119.39Y-74.93
X119.39Y-77.47
X119.39Y-80.01
X119.39Y-82.55
X119.39Y-85.09
X119.39Y-87.63
X119.39Y-90.17
X119.39Y-92.71
X119.39Y-95.25
X119.39Y-97.79
X119.39Y-100.33
X119.39Y-102.87
X119.39Y-105.41
X119.39Y-107.95
X121.92Y-48.26
X121.92Y-50.8
X121.92Y-53.34
X121.92Y-55.88
M30
