%TF.GenerationSoftware,KiCad,Pcbnew,8.0.4-8.0.4-0~ubuntu22.04.1*%
%TF.CreationDate,2024-08-11T20:10:20+02:00*%
%TF.ProjectId,PlaneController,506c616e-6543-46f6-9e74-726f6c6c6572,rev?*%
%TF.SameCoordinates,Original*%
%TF.FileFunction,Soldermask,Bot*%
%TF.FilePolarity,Negative*%
%FSLAX46Y46*%
G04 Gerber Fmt 4.6, Leading zero omitted, Abs format (unit mm)*
G04 Created by KiCad (PCBNEW 8.0.4-8.0.4-0~ubuntu22.04.1) date 2024-08-11 20:10:20*
%MOMM*%
%LPD*%
G01*
G04 APERTURE LIST*
%ADD10R,1.600000X1.600000*%
%ADD11O,1.600000X1.600000*%
%ADD12R,1.700000X1.700000*%
%ADD13O,1.700000X1.700000*%
%ADD14C,3.000000*%
G04 APERTURE END LIST*
D10*
%TO.C,A1*%
X104150000Y-72390000D03*
D11*
X104150000Y-74930000D03*
X104150000Y-77470000D03*
X104150000Y-80010000D03*
X104150000Y-82550000D03*
X104150000Y-85090000D03*
X104150000Y-87630000D03*
X104150000Y-90170000D03*
X104150000Y-92710000D03*
X104150000Y-95250000D03*
X104150000Y-97790000D03*
X104150000Y-100330000D03*
X104150000Y-102870000D03*
X104150000Y-105410000D03*
X104150000Y-107950000D03*
X119390000Y-107950000D03*
X119390000Y-105410000D03*
X119390000Y-102870000D03*
X119390000Y-100330000D03*
X119390000Y-97790000D03*
X119390000Y-95250000D03*
X119390000Y-92710000D03*
X119390000Y-90170000D03*
X119390000Y-87630000D03*
X119390000Y-85090000D03*
X119390000Y-82550000D03*
X119390000Y-80010000D03*
X119390000Y-77470000D03*
X119390000Y-74930000D03*
X119390000Y-72390000D03*
%TD*%
D12*
%TO.C,J2*%
X121920000Y-48260000D03*
D13*
X121920000Y-50800000D03*
X121920000Y-53340000D03*
X121920000Y-55880000D03*
%TD*%
D14*
%TO.C,H2*%
X78740000Y-33020000D03*
%TD*%
%TO.C,H3*%
X78740000Y-109220000D03*
%TD*%
D12*
%TO.C,M2*%
X86360000Y-85930000D03*
D13*
X83820000Y-85930000D03*
X81280000Y-85930000D03*
%TD*%
D12*
%TO.C,J3*%
X111760000Y-33020000D03*
D13*
X114300000Y-33020000D03*
%TD*%
D12*
%TO.C,M3*%
X86360000Y-90580000D03*
D13*
X83820000Y-90580000D03*
X81280000Y-90580000D03*
%TD*%
D12*
%TO.C,M5*%
X86360000Y-99880000D03*
D13*
X83820000Y-99880000D03*
X81280000Y-99880000D03*
%TD*%
D12*
%TO.C,M4*%
X86360000Y-95230000D03*
D13*
X83820000Y-95230000D03*
X81280000Y-95230000D03*
%TD*%
D14*
%TO.C,H1*%
X127000000Y-33020000D03*
%TD*%
%TO.C,H4*%
X127000000Y-109220000D03*
%TD*%
D12*
%TO.C,J1*%
X104140000Y-45720000D03*
D13*
X104140000Y-48260000D03*
X104140000Y-50800000D03*
X104140000Y-53340000D03*
X104140000Y-55880000D03*
X104140000Y-58420000D03*
%TD*%
D12*
%TO.C,M1*%
X86360000Y-81280000D03*
D13*
X83820000Y-81280000D03*
X81280000Y-81280000D03*
%TD*%
M02*
