%TF.GenerationSoftware,KiCad,Pcbnew,8.0.4-8.0.4-0~ubuntu22.04.1*%
%TF.CreationDate,2024-08-11T20:10:20+02:00*%
%TF.ProjectId,PlaneController,506c616e-6543-46f6-9e74-726f6c6c6572,rev?*%
%TF.SameCoordinates,Original*%
%TF.FileFunction,Copper,L2,Bot*%
%TF.FilePolarity,Positive*%
%FSLAX46Y46*%
G04 Gerber Fmt 4.6, Leading zero omitted, Abs format (unit mm)*
G04 Created by KiCad (PCBNEW 8.0.4-8.0.4-0~ubuntu22.04.1) date 2024-08-11 20:10:20*
%MOMM*%
%LPD*%
G01*
G04 APERTURE LIST*
%TA.AperFunction,ComponentPad*%
%ADD10R,1.600000X1.600000*%
%TD*%
%TA.AperFunction,ComponentPad*%
%ADD11O,1.600000X1.600000*%
%TD*%
%TA.AperFunction,ComponentPad*%
%ADD12R,1.700000X1.700000*%
%TD*%
%TA.AperFunction,ComponentPad*%
%ADD13O,1.700000X1.700000*%
%TD*%
%TA.AperFunction,Conductor*%
%ADD14C,0.200000*%
%TD*%
%ADD15C,0.350000*%
G04 APERTURE END LIST*
D10*
%TO.P,A1,1,TX1*%
%TO.N,unconnected-(A1-TX1-Pad1)*%
X104150000Y-72390000D03*
D11*
%TO.P,A1,2,RX1*%
%TO.N,unconnected-(A1-RX1-Pad2)*%
X104150000Y-74930000D03*
%TO.P,A1,3,~{RESET}*%
%TO.N,unconnected-(A1-~{RESET}-Pad3)*%
X104150000Y-77470000D03*
%TO.P,A1,4,GND*%
%TO.N,Net-(J1-Pin_3)*%
X104150000Y-80010000D03*
%TO.P,A1,5,D2*%
%TO.N,Net-(A1-D2)*%
X104150000Y-82550000D03*
%TO.P,A1,6,D3*%
%TO.N,Net-(A1-D3)*%
X104150000Y-85090000D03*
%TO.P,A1,7,D4*%
%TO.N,Net-(A1-D4)*%
X104150000Y-87630000D03*
%TO.P,A1,8,D5*%
%TO.N,Net-(A1-D5)*%
X104150000Y-90170000D03*
%TO.P,A1,9,D6*%
%TO.N,Net-(A1-D6)*%
X104150000Y-92710000D03*
%TO.P,A1,10,D7*%
%TO.N,unconnected-(A1-D7-Pad10)*%
X104150000Y-95250000D03*
%TO.P,A1,11,D8*%
%TO.N,unconnected-(A1-D8-Pad11)*%
X104150000Y-97790000D03*
%TO.P,A1,12,D9*%
%TO.N,unconnected-(A1-D9-Pad12)*%
X104150000Y-100330000D03*
%TO.P,A1,13,D10*%
%TO.N,unconnected-(A1-D10-Pad13)*%
X104150000Y-102870000D03*
%TO.P,A1,14,MOSI*%
%TO.N,unconnected-(A1-MOSI-Pad14)*%
X104150000Y-105410000D03*
%TO.P,A1,15,MISO*%
%TO.N,unconnected-(A1-MISO-Pad15)*%
X104150000Y-107950000D03*
%TO.P,A1,16,SCK*%
%TO.N,unconnected-(A1-SCK-Pad16)*%
X119390000Y-107950000D03*
%TO.P,A1,17,3V3*%
%TO.N,unconnected-(A1-3V3-Pad17)*%
X119390000Y-105410000D03*
%TO.P,A1,18,AREF*%
%TO.N,unconnected-(A1-AREF-Pad18)*%
X119390000Y-102870000D03*
%TO.P,A1,19,A0*%
%TO.N,unconnected-(A1-A0-Pad19)*%
X119390000Y-100330000D03*
%TO.P,A1,20,A1*%
%TO.N,unconnected-(A1-A1-Pad20)*%
X119390000Y-97790000D03*
%TO.P,A1,21,A2*%
%TO.N,unconnected-(A1-A2-Pad21)*%
X119390000Y-95250000D03*
%TO.P,A1,22,A3*%
%TO.N,unconnected-(A1-A3-Pad22)*%
X119390000Y-92710000D03*
%TO.P,A1,23,SDA/A4*%
%TO.N,Net-(A1-SDA{slash}A4)*%
X119390000Y-90170000D03*
%TO.P,A1,24,SCL/A5*%
%TO.N,Net-(A1-SCL{slash}A5)*%
X119390000Y-87630000D03*
%TO.P,A1,25,A6*%
%TO.N,unconnected-(A1-A6-Pad25)*%
X119390000Y-85090000D03*
%TO.P,A1,26,A7*%
%TO.N,unconnected-(A1-A7-Pad26)*%
X119390000Y-82550000D03*
%TO.P,A1,27,+5V*%
%TO.N,Net-(A1-+5V)*%
X119390000Y-80010000D03*
%TO.P,A1,28,~{RESET}*%
%TO.N,unconnected-(A1-~{RESET}-Pad28)*%
X119390000Y-77470000D03*
%TO.P,A1,29,GND*%
%TO.N,Net-(J1-Pin_3)*%
X119390000Y-74930000D03*
%TO.P,A1,30,VIN*%
%TO.N,unconnected-(A1-VIN-Pad30)*%
X119390000Y-72390000D03*
%TD*%
D12*
%TO.P,J2,1,Pin_1*%
%TO.N,unconnected-(J2-Pin_1-Pad1)*%
X121920000Y-48260000D03*
D13*
%TO.P,J2,2,Pin_2*%
%TO.N,unconnected-(J2-Pin_2-Pad2)*%
X121920000Y-50800000D03*
%TO.P,J2,3,Pin_3*%
%TO.N,unconnected-(J2-Pin_3-Pad3)*%
X121920000Y-53340000D03*
%TO.P,J2,4,Pin_4*%
%TO.N,unconnected-(J2-Pin_4-Pad4)*%
X121920000Y-55880000D03*
%TD*%
D12*
%TO.P,M2,1,PWM*%
%TO.N,Net-(A1-D3)*%
X86360000Y-85930000D03*
D13*
%TO.P,M2,2,+*%
%TO.N,Net-(A1-+5V)*%
X83820000Y-85930000D03*
%TO.P,M2,3,-*%
%TO.N,Net-(J1-Pin_3)*%
X81280000Y-85930000D03*
%TD*%
D12*
%TO.P,J3,1,Pin_1*%
%TO.N,Net-(J1-Pin_3)*%
X111760000Y-33020000D03*
D13*
%TO.P,J3,2,Pin_2*%
%TO.N,Net-(A1-+5V)*%
X114300000Y-33020000D03*
%TD*%
D12*
%TO.P,M3,1,PWM*%
%TO.N,Net-(A1-D4)*%
X86360000Y-90580000D03*
D13*
%TO.P,M3,2,+*%
%TO.N,Net-(A1-+5V)*%
X83820000Y-90580000D03*
%TO.P,M3,3,-*%
%TO.N,Net-(J1-Pin_3)*%
X81280000Y-90580000D03*
%TD*%
D12*
%TO.P,M5,1,PWM*%
%TO.N,Net-(A1-D6)*%
X86360000Y-99880000D03*
D13*
%TO.P,M5,2,+*%
%TO.N,Net-(A1-+5V)*%
X83820000Y-99880000D03*
%TO.P,M5,3,-*%
%TO.N,Net-(J1-Pin_3)*%
X81280000Y-99880000D03*
%TD*%
D12*
%TO.P,M4,1,PWM*%
%TO.N,Net-(A1-D5)*%
X86360000Y-95230000D03*
D13*
%TO.P,M4,2,+*%
%TO.N,Net-(A1-+5V)*%
X83820000Y-95230000D03*
%TO.P,M4,3,-*%
%TO.N,Net-(J1-Pin_3)*%
X81280000Y-95230000D03*
%TD*%
D12*
%TO.P,J1,1,Pin_1*%
%TO.N,Net-(A1-+5V)*%
X104140000Y-45720000D03*
D13*
%TO.P,J1,2,Pin_2*%
%TO.N,unconnected-(J1-Pin_2-Pad2)*%
X104140000Y-48260000D03*
%TO.P,J1,3,Pin_3*%
%TO.N,Net-(J1-Pin_3)*%
X104140000Y-50800000D03*
%TO.P,J1,4,Pin_4*%
%TO.N,Net-(A1-SDA{slash}A4)*%
X104140000Y-53340000D03*
%TO.P,J1,5,Pin_5*%
%TO.N,Net-(A1-SCL{slash}A5)*%
X104140000Y-55880000D03*
%TO.P,J1,6,Pin_6*%
%TO.N,unconnected-(J1-Pin_6-Pad6)*%
X104140000Y-58420000D03*
%TD*%
D12*
%TO.P,M1,1,PWM*%
%TO.N,Net-(A1-D2)*%
X86360000Y-81280000D03*
D13*
%TO.P,M1,2,+*%
%TO.N,Net-(A1-+5V)*%
X83820000Y-81280000D03*
%TO.P,M1,3,-*%
%TO.N,Net-(J1-Pin_3)*%
X81280000Y-81280000D03*
%TD*%
D14*
%TO.N,Net-(A1-+5V)*%
X114300000Y-38100000D02*
X114300000Y-33020000D01*
X83820000Y-81280000D02*
X83820000Y-48260000D01*
X83820000Y-48260000D02*
X91440000Y-40640000D01*
X106680000Y-45720000D02*
X104140000Y-45720000D01*
X111760000Y-40640000D02*
X106680000Y-45720000D01*
X91440000Y-40640000D02*
X111760000Y-40640000D01*
X83820000Y-81280000D02*
X83820000Y-99880000D01*
X111760000Y-40640000D02*
X114300000Y-38100000D01*
%TO.N,Net-(J1-Pin_3)*%
X104140000Y-50800000D02*
X119380000Y-35560000D01*
X119380000Y-35560000D02*
X119380000Y-33020000D01*
X114300000Y-30480000D02*
X111760000Y-33020000D01*
X119380000Y-33020000D02*
X116840000Y-30480000D01*
X116840000Y-30480000D02*
X114300000Y-30480000D01*
%TD*%
D15*
X104150000Y-72390000D03*
X104150000Y-74930000D03*
X104150000Y-77470000D03*
X104150000Y-80010000D03*
X104150000Y-82550000D03*
X104150000Y-85090000D03*
X104150000Y-87630000D03*
X104150000Y-90170000D03*
X104150000Y-92710000D03*
X104150000Y-95250000D03*
X104150000Y-97790000D03*
X104150000Y-100330000D03*
X104150000Y-102870000D03*
X104150000Y-105410000D03*
X104150000Y-107950000D03*
X119390000Y-107950000D03*
X119390000Y-105410000D03*
X119390000Y-102870000D03*
X119390000Y-100330000D03*
X119390000Y-97790000D03*
X119390000Y-95250000D03*
X119390000Y-92710000D03*
X119390000Y-90170000D03*
X119390000Y-87630000D03*
X119390000Y-85090000D03*
X119390000Y-82550000D03*
X119390000Y-80010000D03*
X119390000Y-77470000D03*
X119390000Y-74930000D03*
X119390000Y-72390000D03*
X121920000Y-48260000D03*
X121920000Y-50800000D03*
X121920000Y-53340000D03*
X121920000Y-55880000D03*
X78740000Y-33020000D03*
X78740000Y-109220000D03*
X86360000Y-85930000D03*
X83820000Y-85930000D03*
X81280000Y-85930000D03*
X111760000Y-33020000D03*
X114300000Y-33020000D03*
X86360000Y-90580000D03*
X83820000Y-90580000D03*
X81280000Y-90580000D03*
X86360000Y-99880000D03*
X83820000Y-99880000D03*
X81280000Y-99880000D03*
X86360000Y-95230000D03*
X83820000Y-95230000D03*
X81280000Y-95230000D03*
X127000000Y-33020000D03*
X127000000Y-109220000D03*
X104140000Y-45720000D03*
X104140000Y-48260000D03*
X104140000Y-50800000D03*
X104140000Y-53340000D03*
X104140000Y-55880000D03*
X104140000Y-58420000D03*
X86360000Y-81280000D03*
X83820000Y-81280000D03*
X81280000Y-81280000D03*
M02*
