%TF.GenerationSoftware,KiCad,Pcbnew,8.0.5-1.fc40*%
%TF.CreationDate,2024-11-02T20:46:04+01:00*%
%TF.ProjectId,PlaneController,506c616e-6543-46f6-9e74-726f6c6c6572,rev?*%
%TF.SameCoordinates,Original*%
%TF.FileFunction,Profile,NP*%
%FSLAX46Y46*%
G04 Gerber Fmt 4.6, Leading zero omitted, Abs format (unit mm)*
G04 Created by KiCad (PCBNEW 8.0.5-1.fc40) date 2024-11-02 20:46:04*
%MOMM*%
%LPD*%
G01*
G04 APERTURE LIST*
%TA.AperFunction,Profile*%
%ADD10C,0.050000*%
%TD*%
%ADD11C,0.350000*%
G04 APERTURE END LIST*
D10*
X86360000Y-27940000D02*
X130556000Y-27940000D01*
X130556000Y-111760000D01*
X86360000Y-111760000D01*
X86360000Y-27940000D01*
D11*
X96520000Y-94996000D03*
X93980000Y-94996000D03*
X91440000Y-94996000D03*
X104150000Y-68072000D03*
X104150000Y-70612000D03*
X104150000Y-73152000D03*
X104150000Y-75692000D03*
X104150000Y-78232000D03*
X104150000Y-80772000D03*
X104150000Y-83312000D03*
X104150000Y-85852000D03*
X104150000Y-88392000D03*
X104150000Y-90932000D03*
X104150000Y-93472000D03*
X104150000Y-96012000D03*
X104150000Y-98552000D03*
X104150000Y-101092000D03*
X104150000Y-103632000D03*
X119390000Y-103632000D03*
X119390000Y-101092000D03*
X119390000Y-98552000D03*
X119390000Y-96012000D03*
X119390000Y-93472000D03*
X119390000Y-90932000D03*
X119390000Y-88392000D03*
X119390000Y-85852000D03*
X119390000Y-83312000D03*
X119390000Y-80772000D03*
X119390000Y-78232000D03*
X119390000Y-75692000D03*
X119390000Y-73152000D03*
X119390000Y-70612000D03*
X119390000Y-68072000D03*
X121920000Y-48260000D03*
X121920000Y-50800000D03*
X121920000Y-53340000D03*
X121920000Y-55880000D03*
X91440000Y-33020000D03*
X91440000Y-106680000D03*
X96520000Y-87376000D03*
X93980000Y-87376000D03*
X91440000Y-87376000D03*
X96520000Y-69850000D03*
X93980000Y-69850000D03*
X91440000Y-69850000D03*
X96520000Y-66040000D03*
X93980000Y-66040000D03*
X91440000Y-66040000D03*
X96520000Y-73660000D03*
X93980000Y-73660000D03*
X91440000Y-73660000D03*
X96505000Y-81280000D03*
X93965000Y-81280000D03*
X91425000Y-81280000D03*
X96520000Y-91186000D03*
X93980000Y-91186000D03*
X91440000Y-91186000D03*
X96520000Y-77470000D03*
X93980000Y-77470000D03*
X91440000Y-77470000D03*
X125984000Y-33020000D03*
X125984000Y-106426000D03*
X114300000Y-30480000D03*
X116840000Y-30480000D03*
X119380000Y-30480000D03*
X104140000Y-45720000D03*
X104140000Y-48260000D03*
X104140000Y-50800000D03*
X104140000Y-53340000D03*
X104140000Y-55880000D03*
X104140000Y-58420000D03*
X96774000Y-33020000D03*
X96774000Y-30480000D03*
X99314000Y-33020000D03*
X99314000Y-30480000D03*
X101854000Y-33020000D03*
X101854000Y-30480000D03*
X104394000Y-33020000D03*
X104394000Y-30480000D03*
M02*
