M48
; DRILL file {KiCad 8.0.5-1.fc40} date 2024-11-02T20:46:04+0100
; FORMAT={-:-/ absolute / metric / decimal}
; #@! TF.CreationDate,2024-11-02T20:46:04+01:00
; #@! TF.GenerationSoftware,Kicad,Pcbnew,8.0.5-1.fc40
; #@! TF.FileFunction,Plated,1,2,PTH
FMAT,2
METRIC
; #@! TA.AperFunction,Plated,PTH,ComponentDrill
T1C1.000
%
G90
G05
T1
X91.425Y-81.28
X91.44Y-66.04
X91.44Y-69.85
X91.44Y-73.66
X91.44Y-77.47
X91.44Y-87.376
X91.44Y-91.186
X91.44Y-94.996
X93.965Y-81.28
X93.98Y-66.04
X93.98Y-69.85
X93.98Y-73.66
X93.98Y-77.47
X93.98Y-87.376
X93.98Y-91.186
X93.98Y-94.996
X96.505Y-81.28
X96.52Y-66.04
X96.52Y-69.85
X96.52Y-73.66
X96.52Y-77.47
X96.52Y-87.376
X96.52Y-91.186
X96.52Y-94.996
X96.774Y-30.48
X96.774Y-33.02
X99.314Y-30.48
X99.314Y-33.02
X101.854Y-30.48
X101.854Y-33.02
X104.14Y-45.72
X104.14Y-48.26
X104.14Y-50.8
X104.14Y-53.34
X104.14Y-55.88
X104.14Y-58.42
X104.15Y-68.072
X104.15Y-70.612
X104.15Y-73.152
X104.15Y-75.692
X104.15Y-78.232
X104.15Y-80.772
X104.15Y-83.312
X104.15Y-85.852
X104.15Y-88.392
X104.15Y-90.932
X104.15Y-93.472
X104.15Y-96.012
X104.15Y-98.552
X104.15Y-101.092
X104.15Y-103.632
X104.394Y-30.48
X104.394Y-33.02
X114.3Y-30.48
X116.84Y-30.48
X119.38Y-30.48
X119.39Y-68.072
X119.39Y-70.612
X119.39Y-73.152
X119.39Y-75.692
X119.39Y-78.232
X119.39Y-80.772
X119.39Y-83.312
X119.39Y-85.852
X119.39Y-88.392
X119.39Y-90.932
X119.39Y-93.472
X119.39Y-96.012
X119.39Y-98.552
X119.39Y-101.092
X119.39Y-103.632
X121.92Y-48.26
X121.92Y-50.8
X121.92Y-53.34
X121.92Y-55.88
M30
