M48
METRIC,TZ
T1C1.000
%
G90
G05
T1
X91425Y-81280
X91440Y-66040
X91440Y-69850
X91440Y-73660
X91440Y-77470
X91440Y-87376
X91440Y-91186
X91440Y-94996
X93965Y-81280
X93980Y-66040
X93980Y-69850
X93980Y-73660
X93980Y-77470
X93980Y-87376
X93980Y-91186
X93980Y-94996
X96505Y-81280
X96520Y-66040
X96520Y-69850
X96520Y-73660
X96520Y-77470
X96520Y-87376
X96520Y-91186
X96520Y-94996
X96774Y-30480
X96774Y-33020
X99314Y-30480
X99314Y-33020
X101854Y-30480
X101854Y-33020
X104140Y-45720
X104140Y-48260
X104140Y-50800
X104140Y-53340
X104140Y-55880
X104140Y-58420
X104150Y-68072
X104150Y-70612
X104150Y-73152
X104150Y-75692
X104150Y-78232
X104150Y-80772
X104150Y-83312
X104150Y-85852
X104150Y-88392
X104150Y-90932
X104150Y-93472
X104150Y-96012
X104150Y-98552
X104150Y-101092
X104150Y-103632
X104394Y-30480
X104394Y-33020
X114300Y-30480
X116840Y-30480
X119380Y-30480
X119390Y-68072
X119390Y-70612
X119390Y-73152
X119390Y-75692
X119390Y-78232
X119390Y-80772
X119390Y-83312
X119390Y-85852
X119390Y-88392
X119390Y-90932
X119390Y-93472
X119390Y-96012
X119390Y-98552
X119390Y-101092
X119390Y-103632
X121920Y-48260
X121920Y-50800
X121920Y-53340
X121920Y-55880
M30
